<svg xmlns="http://www.w3.org/2000/svg" xmlns:xlink="http://www.w3.org/1999/xlink" viewBox="0 0 258.32 254.83"><defs><style>.cls-1{stroke:#b26464;stroke-miterlimit:10;stroke-width:5.13px;fill:url(#linear-gradient);}.cls-2{fill:#e08585;}.cls-3{fill:#934747;}</style><linearGradient id="linear-gradient" x1="129.16" y1="252.27" x2="129.16" y2="2.56" gradientUnits="userSpaceOnUse"><stop offset="0" stop-color="#d86464" stop-opacity="0.3"/><stop offset="1" stop-color="#a55050" stop-opacity="0.1"/></linearGradient></defs><g id="Layer_2" data-name="Layer 2"><g id="main"><path class="cls-1" d="M104.44,8.21,48.61,35.09A57,57,0,0,0,17.78,73.75L4,134.16a57,57,0,0,0,11,48.21l38.63,48.44a57,57,0,0,0,44.55,21.46h62a57,57,0,0,0,44.55-21.46l38.64-48.44a57,57,0,0,0,11-48.21L240.54,73.75a57,57,0,0,0-30.83-38.66L153.88,8.21A56.93,56.93,0,0,0,104.44,8.21Z"/><g id="fnE8Ml.tif"><path class="cls-2" d="M129.12,171.65a44.24,44.24,0,1,1,.07,0ZM106.31,121.5a7.83,7.83,0,0,0-3.11.69,6.59,6.59,0,0,0-4,5.72,6.88,6.88,0,0,0,2.06,5.47c5.71,5.73,11.61,11.65,17.48,17.47a4.61,4.61,0,0,0,3.28,1.42,4.92,4.92,0,0,0,3.23-1.28c.25-.22.5-.47.74-.71l23.21-23.2c2.71-2.7,5.41-5.41,8.12-8.1a6.69,6.69,0,0,0,2.09-6.86,6.79,6.79,0,0,0-6.57-5.33,7.42,7.42,0,0,0-5.2,2.27q-9.54,9.47-19,19l-5.9,5.91c-.26.26-.51.5-.64.6-.13-.1-.37-.34-.61-.57l-3.1-3.11c-2.44-2.45-5-5-7.49-7.44A6.4,6.4,0,0,0,106.31,121.5Z"/><path class="cls-3" d="M129.15,83.8h.06a43.62,43.62,0,0,1,0,87.23h-.07a43.62,43.62,0,0,1,0-87.23m-7.07,49.92-.17-.17-3.14-3.14c-2.43-2.44-4.94-5-7.46-7.41a7,7,0,0,0-5-2.13,8.36,8.36,0,0,0-3.36.75,7.19,7.19,0,0,0-4.38,6.23v.08a7.49,7.49,0,0,0,2.24,5.89c5.39,5.41,11.5,11.54,17.49,17.48a5.2,5.2,0,0,0,3.71,1.59,5.53,5.53,0,0,0,3.64-1.43c.27-.24.52-.49.76-.73l.1-.1,12.27-12.26,7.43-7.42,3.21-3.21q4.16-4.17,8.33-8.32c2.25-2.24,3-4.68,2.25-7.46a7.48,7.48,0,0,0-7.17-5.79,8,8,0,0,0-5.64,2.45c-6.38,6.33-12.84,12.81-19.08,19.07l-5.83,5.84,0,0-.16.15m7.07-51.16a44.86,44.86,0,0,0,0,89.71h.07a44.86,44.86,0,0,0,0-89.71Zm-7.07,52.67c.27,0,.54-.28,1.08-.82q12.45-12.47,24.91-24.91a6.75,6.75,0,0,1,4.76-2.08,6.19,6.19,0,0,1,6,4.86,6.07,6.07,0,0,1-1.93,6.25l-11.54,11.54-19.7,19.68c-.26.26-.52.53-.8.77a4.3,4.3,0,0,1-2.82,1.13,4,4,0,0,1-2.84-1.24q-8.78-8.7-17.48-17.47a6.26,6.26,0,0,1-1.88-5,6,6,0,0,1,3.63-5.2,7.29,7.29,0,0,1,2.87-.64,5.83,5.83,0,0,1,4.14,1.78c3.57,3.46,7.06,7,10.58,10.54.53.52.79.79,1,.79Z"/></g></g></g></svg>