<svg xmlns="http://www.w3.org/2000/svg" xmlns:xlink="http://www.w3.org/1999/xlink" viewBox="0 0 226.67 223.61"><defs><style>.cls-1{stroke:#b26464;stroke-miterlimit:10;stroke-width:4.5px;fill:url(#linear-gradient);}.cls-2{fill:#e08585;}.cls-3{fill:#934747;}</style><linearGradient id="linear-gradient" x1="113.34" y1="221.36" x2="113.34" y2="2.25" gradientUnits="userSpaceOnUse"><stop offset="0" stop-color="#d86464" stop-opacity="0.3"/><stop offset="1" stop-color="#a55050" stop-opacity="0.1"/></linearGradient></defs><g id="Layer_2" data-name="Layer 2"><g id="main"><path class="cls-1" d="M91.64,7.2l-49,23.59A50,50,0,0,0,15.6,64.71l-12.1,53A50,50,0,0,0,13.16,160l33.9,42.51a50,50,0,0,0,39.09,18.83h54.37a50,50,0,0,0,39.09-18.83L213.51,160a50,50,0,0,0,9.66-42.3l-12.1-53a50,50,0,0,0-27-33.92L135,7.2A50,50,0,0,0,91.64,7.2Z"/><path class="cls-2" d="M170,167.3h-.17c-2.46-.29-4.94-.7-7.38-1.22A79.74,79.74,0,0,1,137.38,156l-1.19-.74c.54-1.52,1-3.07,1.48-4.63a80.29,80.29,0,0,0,7.58,4.76,93.42,93.42,0,0,0,15.29,7.23c1,.37,7.39,2.63,10.85,3.78A1.48,1.48,0,0,1,170,167.3Z"/><path class="cls-3" d="M138,151.53c2.26,1.56,4.6,3,7,4.35a94.38,94.38,0,0,0,15.37,7.26c1,.35,6.5,2.32,10.07,3.52a.86.86,0,0,1-.39.09h-.11c-2.45-.28-4.91-.69-7.32-1.21a79.12,79.12,0,0,1-24.93-10l0,0-.77-.48c.4-1.15.78-2.33,1.13-3.51m-.62-1.78c-.54,1.94-1.15,3.86-1.84,5.74.52.34,1,.67,1.57,1h0a80,80,0,0,0,25.27,10.12c2.43.52,4.91.93,7.42,1.23H170a2,2,0,0,0,2-1.73s0-.05,0-.05c-3.32-1.09-10.31-3.58-11.32-3.95a93.52,93.52,0,0,1-15.22-7.18,80.81,80.81,0,0,1-8.15-5.18Z"/><path class="cls-2" d="M117.44,171c-6.92,0-12.65-2.34-16.56-6.75-.11-.12-.21-.25-.32-.38a21.92,21.92,0,0,1-5.13-12.18,2.93,2.93,0,0,1,.83-2.36,5.52,5.52,0,0,1,2.79-1.54,5.41,5.41,0,0,1,1.21-.14,3,3,0,0,1,2.78,2,13.06,13.06,0,0,0,7.83,7.82,9.26,9.26,0,0,0,3.1.57c5.76,0,10.4-6.28,11.85-12.18a24.78,24.78,0,0,0,.27-10l-.27-1.64a81.15,81.15,0,0,0-1.69-8.46.56.56,0,0,1,.53-.69.56.56,0,0,1,.46.25,9.14,9.14,0,0,1,1,2.6,7.4,7.4,0,0,0,.81,2.23c.8,1.18,1.72,2.41,2.88,3.86a79.88,79.88,0,0,0,7.16,7.89c.56.54,1.12,1.07,1.69,1.59.89.81,1.79,1.6,2.68,2.34a.56.56,0,0,1,.19.54c-.29,1.23-.58,2.37-.89,3.49-1.24,4.48-4.36,12.68-11.33,17.36A19.88,19.88,0,0,1,117.45,171Z"/><path class="cls-3" d="M124.66,125.65c.85,1.32.94,3.61,1.78,4.84s1.89,2.63,2.9,3.89a79.81,79.81,0,0,0,7.21,8c.56.54,1.13,1.07,1.7,1.59.89.81,1.79,1.6,2.7,2.36-.27,1.16-.56,2.32-.88,3.47-1.77,6.39-5.35,13.18-11.1,17.05a19.49,19.49,0,0,1-11.52,3.67h0c-6.43,0-12.2-2.1-16.15-6.56-.1-.12-.21-.24-.31-.37a21.45,21.45,0,0,1-5-11.88,2.39,2.39,0,0,1,.68-1.92,5,5,0,0,1,3.61-1.52h0a2.39,2.39,0,0,1,2.24,1.61,13.52,13.52,0,0,0,8.16,8.15,9.69,9.69,0,0,0,3.29.6c6.29,0,11-6.73,12.38-12.59a25.34,25.34,0,0,0,.28-10.19,102.25,102.25,0,0,0-2-10.15m0-1.1a1.22,1.22,0,0,0-.45.1,1.1,1.1,0,0,0-.61,1.29,78.61,78.61,0,0,1,1.68,8.38l.27,1.66a24.06,24.06,0,0,1-.26,9.75c-1.4,5.7-5.84,11.76-11.32,11.76a8.36,8.36,0,0,1-2.91-.54,12.52,12.52,0,0,1-7.51-7.48,3.47,3.47,0,0,0-3.26-2.34,6.6,6.6,0,0,0-1.36.14,6.13,6.13,0,0,0-3.06,1.7,3.46,3.46,0,0,0-1,2.79,22.57,22.57,0,0,0,5.26,12.49l.34.39c4,4.53,9.87,6.92,17,6.92a20.4,20.4,0,0,0,12.13-3.85c7.12-4.78,10.29-13.12,11.55-17.67.32-1.14.62-2.32.9-3.51a1.09,1.09,0,0,0-.37-1.09c-.88-.74-1.78-1.52-2.66-2.32-.57-.52-1.14-1.05-1.68-1.58a78.83,78.83,0,0,1-7.11-7.84c-1.15-1.44-2.06-2.66-2.86-3.83a7.4,7.4,0,0,1-.74-2.06,9.63,9.63,0,0,0-1-2.75,1.11,1.11,0,0,0-.92-.51Z"/><path class="cls-2" d="M142.52,137.58a.54.54,0,0,1-.39-.16l-.74-.77a82,82,0,0,1-10.32-13.58l-.41.07-.45.07-.38.05-.76.07-.63,0-.44,0-.85,0H127a22.11,22.11,0,0,1-3.45-.3c-.34-.06-.69-.12-1-.2v-.55l-.11.53h0l.1.18a.68.68,0,0,1,.07.28,1.13,1.13,0,0,1-.3.63c-.14.22-.23.37-.31.52q-.27.47-.51.93l-.12.23a3.25,3.25,0,0,0-.26.58,2,2,0,0,1-.6,1.1,1.63,1.63,0,0,1-1,.34h-1.15a13.63,13.63,0,0,1-2-.15c-2.25-.33-5-2.17-6.82-3.66a4.45,4.45,0,0,0-2.82-1,5.08,5.08,0,0,0-1.58.26l-.15,0a5.61,5.61,0,0,1-4.42-.63,4.6,4.6,0,0,1-.53-.37.51.51,0,0,1-.17-.24c-12.53-35.09-.18-52.17,3.88-57.78a15.85,15.85,0,0,0,.92-1.35l0-.05a.54.54,0,0,1-.13-.61.55.55,0,0,1,.5-.33h.34a37.22,37.22,0,0,1,4.23.47l.38.07.65.13a34.85,34.85,0,0,1,10.86,4.17,13.7,13.7,0,0,1,6.06,7.69c.55,1.73,1.17,3.48,1.84,5.19l0,.1a67.46,67.46,0,0,0,3.5,7.74c.44.83.89,1.66,1.36,2.47a80.77,80.77,0,0,1,4.31,9.54l.2.54a80.73,80.73,0,0,1,3.63,13.32c.2,1.11.38,2.23.54,3.35a81.43,81.43,0,0,1,.79,11.39c0,2.38-.1,4.76-.3,7.09-.06.66-.12,1.31-.2,2a.53.53,0,0,1-.36.45Z"/><path class="cls-3" d="M104.83,62.41h.31a35.93,35.93,0,0,1,4.17.46l.37.07.64.12a35.09,35.09,0,0,1,4,1.07,34,34,0,0,1,6.69,3l0,0a13.16,13.16,0,0,1,5.77,7.36c.56,1.76,1.17,3.5,1.85,5.22a1,1,0,0,1,0,.1,70.51,70.51,0,0,0,3.52,7.79q.67,1.26,1.38,2.49a81.49,81.49,0,0,1,4.27,9.47l.19.52a79.32,79.32,0,0,1,3.61,13.24c.2,1.1.38,2.21.54,3.32A81.31,81.31,0,0,1,143,128q0,3.56-.31,7c-.05.66-.12,1.31-.19,2l-.73-.77a80.53,80.53,0,0,1-10.44-13.81l-.41.08-.37.06h-.08l-.35,0-.37,0-.28,0-.47.05-.61,0-.43,0-.37,0H127a22.12,22.12,0,0,1-3.38-.29l-1-.19-.11,0-.15,0h0l-.36-.08h0l-.19,0-.33-.08-.14,0,.35.64.35.64c0,.1-.21.33-.27.42l-.27.47c-.18.31-.35.63-.51,1a5.24,5.24,0,0,0-.42.9,1.64,1.64,0,0,1-.42.84,1.23,1.23,0,0,1-.73.21h-1.13a13.73,13.73,0,0,1-1.94-.14c-2.1-.31-4.68-2-6.56-3.55a5,5,0,0,0-3.16-1.09,5.28,5.28,0,0,0-1.75.3l-.12,0a5,5,0,0,1-1.34.18,5.08,5.08,0,0,1-2.65-.74,5.85,5.85,0,0,1-.48-.34c-15-41.93,6-58.1,4.86-59.16l-.24-.22m0-1.1a1.09,1.09,0,0,0-1,.67,1,1,0,0,0,0,.89c-.19.28-.46.66-.72,1C99,69.55,86.56,86.8,99.18,122.16a1.14,1.14,0,0,0,.35.49,5.68,5.68,0,0,0,.59.41,6.18,6.18,0,0,0,3.22.9,6.37,6.37,0,0,0,1.62-.21l.19-.06a4.24,4.24,0,0,1,1.4-.23,3.92,3.92,0,0,1,2.48.85c2.8,2.22,5.18,3.49,7.09,3.77a14.48,14.48,0,0,0,2.09.15h1.16a2.23,2.23,0,0,0,1.39-.46,2.37,2.37,0,0,0,.75-1.29l0-.08a3.32,3.32,0,0,1,.23-.47l.12-.24c.16-.31.32-.61.49-.91.08-.15.17-.29.26-.44l0,0a1.74,1.74,0,0,0,.37-.72l.4.07a23.29,23.29,0,0,0,3.55.3h1l.43,0,.68-.05.48,0,.22,0h.07l.34,0h.05l.39-.06h.13A81.47,81.47,0,0,0,141,137l.74.78a1.11,1.11,0,0,0,.78.33,1.13,1.13,0,0,0,.36-.06,1.1,1.1,0,0,0,.73-.91c.07-.66.14-1.32.19-2,.21-2.34.31-4.73.31-7.13a82.69,82.69,0,0,0-.8-11.47c-.16-1.12-.34-2.25-.54-3.37a81.56,81.56,0,0,0-3.66-13.41c-.07-.18-.13-.36-.2-.55a83.06,83.06,0,0,0-4.32-9.58c-.5-.85-1-1.68-1.38-2.49a68,68,0,0,1-3.47-7.67s0,0,0,0l0-.1c-.65-1.66-1.26-3.39-1.81-5.11a14.19,14.19,0,0,0-6.25-8l-.05,0a36.1,36.1,0,0,0-6.9-3.14,37.39,37.39,0,0,0-4.13-1.1l-.12,0-.54-.11-.37-.06a34.6,34.6,0,0,0-4.32-.48h-.36Z"/><path class="cls-2" d="M92.14,128a7.8,7.8,0,0,1-6.34-3.4,11,11,0,0,1-1.45-3.51,35.09,35.09,0,0,0-1.92-5.34A32.4,32.4,0,0,0,75.6,106c-1.23-1.15-2.53-2.29-3.86-3.38l-.34-.28c-.79-.64-1.6-1.27-2.42-1.89-1.7-1.28-3.5-2.52-5.34-3.69a9.16,9.16,0,0,1-3.13-3.35,81,81,0,0,0-8.87-13.12,7.38,7.38,0,0,1-.89-8.16,33.65,33.65,0,0,1,4.86-7h0a34.29,34.29,0,0,1,48.84-2.28l.23.21a5.92,5.92,0,0,1,1.48,6.48,81.09,81.09,0,0,0-5.33,23.75c-.14,1.92-.21,3.89-.21,5.84,0,.62,0,1.25,0,1.87,0,2.15.18,4.36.41,6.57.06.57.16,1.15.25,1.74a12.3,12.3,0,0,1,.26,3.5,13.84,13.84,0,0,1-.55,2.29c-.14.44-.27.87-.38,1.31-.32,1.33-.56,2.7-.77,4A7.79,7.79,0,0,1,92.14,128Z"/><path class="cls-3" d="M81.16,54.23a33.65,33.65,0,0,1,22.92,9l.14.13.1.09a5.36,5.36,0,0,1,1.34,5.88,81.62,81.62,0,0,0-5.37,23.91c-.14,2-.21,3.92-.21,5.88,0,.63,0,1.26,0,1.88,0,2.17.18,4.4.41,6.62.06.59.16,1.19.25,1.77a11.8,11.8,0,0,1,.26,3.34,13.41,13.41,0,0,1-.54,2.21c-.13.43-.26.87-.38,1.33-.33,1.33-.55,2.66-.78,4,0,.06,0,.12,0,.17a7.21,7.21,0,0,1-7.18,7,7.33,7.33,0,0,1-5.89-3.16A10.71,10.71,0,0,1,84.87,121a35.13,35.13,0,0,0-1.94-5.42,33.23,33.23,0,0,0-7-10c-1.25-1.16-2.56-2.31-3.9-3.4l-.33-.28c-.8-.65-1.62-1.29-2.44-1.9-1.72-1.3-3.53-2.55-5.37-3.72A8.53,8.53,0,0,1,61,93.1l0,0A82.59,82.59,0,0,0,52,79.86a6.79,6.79,0,0,1-.81-7.52A33.93,33.93,0,0,1,56,65.46l0,0A34.08,34.08,0,0,1,64,58.92a33.7,33.7,0,0,1,17.18-4.69m0-1.09A34.76,34.76,0,0,0,55.21,64.72h0a35.37,35.37,0,0,0-4.94,7.1,7.94,7.94,0,0,0,.93,8.73l0,0a80.09,80.09,0,0,1,8.8,13v0a9.86,9.86,0,0,0,3.32,3.56q2.73,1.73,5.3,3.66c.82.61,1.62,1.24,2.41,1.88l.33.27q2,1.62,3.84,3.36A31.59,31.59,0,0,1,81.94,116a34.65,34.65,0,0,1,1.88,5.26A11.77,11.77,0,0,0,85.35,125a8.39,8.39,0,0,0,6.79,3.62,8.27,8.27,0,0,0,8.27-8.12h0c.22-1.31.44-2.64.76-3.94a28.89,28.89,0,0,0,.94-3.66c.22-1.77-.32-3.61-.5-5.37-.23-2.15-.36-4.33-.41-6.53,0-.61,0-1.23,0-1.85,0-2,.07-3.89.2-5.8a80.48,80.48,0,0,1,5.3-23.59,6.47,6.47,0,0,0-1.61-7.07l-.24-.22a34.69,34.69,0,0,0-23.67-9.27Z"/><path class="cls-2" d="M126.71,94.59a.72.72,0,0,1-.32-.08,4.69,4.69,0,0,1-2.19-2.21,20.71,20.71,0,0,1,2.79.81.78.78,0,0,1,.44.45.77.77,0,0,1-.06.63A.78.78,0,0,1,126.71,94.59Z"/><path class="cls-3" d="M125.48,93.19c.44.13.88.28,1.32.44a.2.2,0,0,1,.08.3.2.2,0,0,1-.17.11l-.08,0a4.12,4.12,0,0,1-1.15-.83m-2.12-1.61A5.3,5.3,0,0,0,126.15,95a1.24,1.24,0,0,0,.56.13,1.29,1.29,0,0,0,1.11-.64l0,0a1.3,1.3,0,0,0-.66-1.87,21.28,21.28,0,0,0-3.82-1Z"/><path class="cls-3" d="M127.84,94.47l0,0a1.28,1.28,0,0,1-1.67.51,5.3,5.3,0,0,1-2.79-3.42,21.28,21.28,0,0,1,3.82,1A1.3,1.3,0,0,1,127.84,94.47Z"/><path class="cls-3" d="M119.18,90.89a10,10,0,0,1,4-.5,8.41,8.41,0,0,1,4.35,1.08,1.12,1.12,0,0,1-1.2,1.88A7.49,7.49,0,0,0,123,91.47a9.54,9.54,0,0,0-3.81-.58Z"/><path class="cls-2" d="M175.46,162.51a2.48,2.48,0,0,1-.45,0,64.75,64.75,0,0,1-6.42-1.68l-1.1-.35a80.61,80.61,0,0,1-26.19-14.57c-.88-.74-1.79-1.53-2.68-2.34-.57-.52-1.13-1.05-1.69-1.59a80.32,80.32,0,0,1-10.53-12.45c-.83-1.2-1.63-2.45-2.41-3.73l-.23-.38-.4-.68h0l-.93-1.63-.09-.17.14,0c.34.08.69.14,1,.2a22.13,22.13,0,0,0,3.46.3h1l.43,0,.63,0,.67-.06.47-.06.37-.06.49-.08a81.5,81.5,0,0,0,10.33,13.58l.73.77a81.86,81.86,0,0,0,14.28,11.79l2,1.3a90.17,90.17,0,0,0,10,5.94c6.37,2.57,8.27,4,8.4,4.4C176.75,161.36,176.61,162.51,175.46,162.51Z"/><path class="cls-3" d="M123.39,123.65h0a23.23,23.23,0,0,0,3.52.3H128l.46,0,.64-.05.47,0,.24,0h.07l.34,0,.09,0,.37,0h.11A81.47,81.47,0,0,0,141,137l.73.78a82,82,0,0,0,14.38,11.86l2,1.3a92.07,92.07,0,0,0,10,6l.07,0c5.43,2.19,7.55,3.53,8,4q-.06,1-.75,1l-.35,0a64.89,64.89,0,0,1-6.36-1.67l-1.09-.35a80.08,80.08,0,0,1-26-14.47c-.88-.74-1.78-1.52-2.66-2.32-.57-.52-1.14-1.05-1.68-1.58a79.74,79.74,0,0,1-10.46-12.37q-1.23-1.78-2.41-3.73c0-.08-.09-.16-.14-.23l-.07-.12-.25-.42-.16-.28,0,0h0l-.06-.1-.34-.59m-2.13-1.59.35.64c.11.21.23.42.35.63h0l.22.39c.07.13.15.26.22.4l.39.66.06.11v0h0l0,0,.41.69.23.37c.77,1.28,1.57,2.53,2.42,3.76a81.44,81.44,0,0,0,10.6,12.54c.56.54,1.13,1.07,1.7,1.59.89.81,1.79,1.6,2.7,2.36A81.15,81.15,0,0,0,167.32,161l1.11.35a61.8,61.8,0,0,0,6.48,1.7,2.74,2.74,0,0,0,.55.05c1.89,0,1.84-2.16,1.85-2.18.2-1.27-6.83-4.15-8.7-4.91a111.6,111.6,0,0,1-11.9-7.21A81.49,81.49,0,0,1,142.52,137l-.73-.77a80.53,80.53,0,0,1-10.44-13.81l-.41.08-.37.06h-.08l-.35,0-.37,0-.28,0-.47.05-.61,0-.43,0-.37,0H127a22.12,22.12,0,0,1-3.38-.29l-1-.19-.11,0-.15,0h0l-.36-.08h0l-.19,0-.33-.08-.14,0Z"/></g></g></svg>