<svg xmlns="http://www.w3.org/2000/svg" xmlns:xlink="http://www.w3.org/1999/xlink" viewBox="0 0 364.5 364.5"><defs><style>.cls-1{stroke:#b26464;stroke-miterlimit:10;stroke-width:2px;fill:url(#linear-gradient);}.cls-2{fill:#e08585;}.cls-3{fill:#934747;}</style><linearGradient id="linear-gradient" x1="182.25" y1="363.5" x2="182.25" y2="1" gradientTransform="translate(364.5 364.5) rotate(-180)" gradientUnits="userSpaceOnUse"><stop offset="0" stop-color="#d86464" stop-opacity="0.3"/><stop offset="1" stop-color="#a55050" stop-opacity="0.1"/></linearGradient></defs><g id="Layer_2" data-name="Layer 2"><g id="main"><rect class="cls-1" x="1" y="1" width="362.5" height="362.5" transform="translate(364.5 364.5) rotate(180)"/><path class="cls-2" d="M288.89,286.63l-.33,0c-4.63-.55-9.29-1.32-13.87-2.3a149.87,149.87,0,0,1-47.21-18.9l-.06,0c-.73-.45-1.47-.9-2.19-1.37,1-2.85,2-5.77,2.79-8.69a153.38,153.38,0,0,0,14.25,8.95c10.14,5.63,17,9.29,28.77,13.59,1.93.7,13.92,5,20.42,7.12A2.83,2.83,0,0,1,288.89,286.63Z"/><path class="cls-3" d="M228.61,257c4.24,2.94,8.65,5.69,13.16,8.19,10.19,5.65,17,9.33,28.91,13.65,1.79.65,12.23,4.36,18.95,6.63a1.86,1.86,0,0,1-.74.16h-.21c-4.6-.54-9.23-1.31-13.78-2.28A148.62,148.62,0,0,1,228,264.53l-.08,0c-.49-.29-1-.6-1.47-.91.76-2.17,1.47-4.38,2.14-6.6m-1.18-3.35q-1.52,5.49-3.45,10.8c1,.63,2,1.26,3,1.86h0a151,151,0,0,0,47.53,19q6.87,1.47,14,2.31l.45,0a3.84,3.84,0,0,0,3.79-3.26s.05-.09,0-.11c-6.26-2.05-19.4-6.72-21.31-7.41-11.54-4.2-18.18-7.73-28.62-13.52a152.32,152.32,0,0,1-15.34-9.74Z"/><path class="cls-2" d="M190,293.63c-13,0-23.78-4.39-31.13-12.69-.21-.23-.42-.47-.62-.72a41.39,41.39,0,0,1-9.65-22.91,5.55,5.55,0,0,1,1.56-4.44,10.57,10.57,0,0,1,5.25-2.9,10.37,10.37,0,0,1,2.29-.25,5.57,5.57,0,0,1,5.22,3.71,24.56,24.56,0,0,0,14.73,14.71,17.07,17.07,0,0,0,5.83,1.07c10.83,0,19.57-11.8,22.29-22.9a46.26,46.26,0,0,0,.51-18.75q-.27-1.58-.51-3.12a148.19,148.19,0,0,0-3.18-15.88,1,1,0,0,1,.58-1.21,1,1,0,0,1,.41-.09,1,1,0,0,1,.87.47,17.34,17.34,0,0,1,1.8,4.89,14.22,14.22,0,0,0,1.53,4.19c1.51,2.22,3.24,4.53,5.42,7.27a151.43,151.43,0,0,0,13.46,14.84c1,1,2.09,2,3.19,3,1.68,1.54,3.38,3,5,4.4a1,1,0,0,1,.35,1c-.52,2.24-1.08,4.45-1.67,6.56-2.33,8.42-8.2,23.85-21.31,32.66-7.39,5-14,7.08-22.24,7.08Z"/><path class="cls-3" d="M203.55,208.29c1.6,2.49,1.76,6.8,3.34,9.1,1.72,2.51,3.57,5,5.46,7.33a152.29,152.29,0,0,0,13.56,14.94q1.58,1.53,3.21,3,2.49,2.27,5.08,4.43-.76,3.28-1.66,6.52c-3.34,12-10.06,24.8-20.89,32.07-6.93,4.66-13.42,6.91-21.67,6.91h0c-12.08,0-22.93-4-30.36-12.34l-.6-.69a40.59,40.59,0,0,1-6.84-11.48,40.15,40.15,0,0,1-2.58-10.87,4.59,4.59,0,0,1,1.27-3.62,9.6,9.6,0,0,1,4.74-2.63,9.38,9.38,0,0,1,2.07-.22h0a4.52,4.52,0,0,1,4.22,3,25.48,25.48,0,0,0,15.35,15.34,18.17,18.17,0,0,0,6.18,1.13c11.84,0,20.59-12.66,23.29-23.68a47.62,47.62,0,0,0,.52-19.17,186.8,186.8,0,0,0-3.7-19.1m0-2.06a2,2,0,0,0-.83.18,2.07,2.07,0,0,0-1.15,2.43,147.61,147.61,0,0,1,3.15,15.77q.25,1.54.51,3.12a45.33,45.33,0,0,1-.48,18.34c-2.63,10.72-11,22.11-21.3,22.11a16,16,0,0,1-5.48-1,23.56,23.56,0,0,1-14.12-14.08,6.56,6.56,0,0,0-6.14-4.4,11.79,11.79,0,0,0-2.55.27,11.65,11.65,0,0,0-5.76,3.19,6.59,6.59,0,0,0-1.85,5.26,42.71,42.71,0,0,0,2.7,11.43,42.25,42.25,0,0,0,7.2,12.06l.63.73c7.54,8.51,18.57,13,31.89,13,8.44,0,15.26-2.17,22.83-7.26,13.38-9,19.36-24.68,21.73-33.23.59-2.13,1.16-4.36,1.68-6.61a2.05,2.05,0,0,0-.69-2.05c-1.67-1.38-3.35-2.85-5-4.36-1.08-1-2.14-2-3.16-3A151.92,151.92,0,0,1,214,223.44c-2.16-2.72-3.87-5-5.37-7.21a13.62,13.62,0,0,1-1.38-3.87,18.16,18.16,0,0,0-1.93-5.18,2.06,2.06,0,0,0-1.74-1Z"/><path class="cls-2" d="M237.15,230.74a1,1,0,0,1-.74-.31c-.47-.48-.93-1-1.38-1.45a154.3,154.3,0,0,1-19.42-25.54h-.08c-.23.05-.46.08-.7.12l-.84.13-.89.11-.38,0-.88.09-1.18.08-.83,0-.72,0h-1.24a41.38,41.38,0,0,1-6.48-.56c-.65-.11-1.29-.23-1.93-.37l-.28-.06a3.72,3.72,0,0,0,.19.34,1.07,1.07,0,0,1,.13.53,2.16,2.16,0,0,1-.55,1.18l-.1.13c-.17.28-.34.56-.5.85-.33.58-.65,1.16-.95,1.75-.07.15-.15.29-.22.43a5.35,5.35,0,0,0-.49,1.08l-.05.16a3.66,3.66,0,0,1-1.08,1.92,3.14,3.14,0,0,1-2,.64h-2.16a26.63,26.63,0,0,1-3.79-.27c-4.23-.62-9.31-4.09-12.83-6.89a8.43,8.43,0,0,0-5.3-1.82,9.2,9.2,0,0,0-3,.49l-.29.09a10.64,10.64,0,0,1-8.31-1.18,10.64,10.64,0,0,1-1-.7,1.09,1.09,0,0,1-.33-.46c-23.56-66-.33-98.11,7.3-108.67.72-1,1.46-2,1.75-2.55l-.09-.08a1,1,0,0,1,.71-1.78l.63,0a68.24,68.24,0,0,1,8,.89l.71.12,1.22.24a65.06,65.06,0,0,1,7.65,2,65.79,65.79,0,0,1,12.78,5.81l.09,0a25.59,25.59,0,0,1,11.3,14.42c1,3.27,2.21,6.56,3.47,9.75a1.67,1.67,0,0,0,.08.2,128,128,0,0,0,6.57,14.55c.81,1.54,1.68,3.1,2.57,4.64a151.19,151.19,0,0,1,8.1,18c.13.33.25.67.37,1a153,153,0,0,1,6.84,25.06c.38,2.11.72,4.22,1,6.3a154.31,154.31,0,0,1,1.49,21.43c0,4.47-.19,9-.57,13.33-.1,1.24-.23,2.47-.36,3.7a1,1,0,0,1-.69.86A1,1,0,0,1,237.15,230.74Z"/><path class="cls-3" d="M166.26,89.33l.57,0a65.44,65.44,0,0,1,7.85.87l.69.12,1.21.24a63.17,63.17,0,0,1,7.53,2,64.71,64.71,0,0,1,12.58,5.72l.09.05a24.54,24.54,0,0,1,10.84,13.84q1.59,5,3.49,9.81c0,.07,0,.13.08.19a128.21,128.21,0,0,0,6.62,14.67c.84,1.58,1.7,3.14,2.6,4.68a151.59,151.59,0,0,1,8,17.8l.37,1a151.41,151.41,0,0,1,6.79,24.9c.37,2.07.71,4.15,1,6.25a152.65,152.65,0,0,1,1.49,21.29q0,6.69-.57,13.24c-.11,1.23-.23,2.46-.37,3.68-.46-.47-.91-1-1.36-1.43a152,152,0,0,1-19.65-26l-.78.14-.68.11-.15,0-.67.1-.7.09-.52.06-.88.08c-.38,0-.76.06-1.14.08s-.54,0-.81,0l-.71,0-.86,0h-.33a40.07,40.07,0,0,1-6.34-.54c-.64-.11-1.26-.23-1.89-.36l-.2,0-.28-.06h-.08l-.67-.16-.05,0-.35-.09-.62-.16-.26-.07c.21.4.43.8.65,1.2s.43.8.66,1.2c0,.2-.39.62-.5.8s-.35.59-.52.88c-.33.59-.66,1.19-1,1.8a9.92,9.92,0,0,0-.79,1.68,3,3,0,0,1-.79,1.57,2.17,2.17,0,0,1-1.36.41h-2.14a25.67,25.67,0,0,1-3.64-.26c-4-.57-8.8-3.85-12.34-6.67a9.48,9.48,0,0,0-5.94-2,10.15,10.15,0,0,0-3.3.55l-.23.07a9.5,9.5,0,0,1-7.5-1.07c-.31-.19-.61-.4-.9-.62-28.15-78.87,11.26-109.3,9.14-111.29l-.44-.42m0-2a2.07,2.07,0,0,0-1.89,2.93c-.35.52-.87,1.24-1.34,1.9A85.85,85.85,0,0,0,147.62,126c-4.78,22-2.09,47.47,8,75.74a2,2,0,0,0,.66.92,10.34,10.34,0,0,0,1.1.77,11.61,11.61,0,0,0,6.05,1.7,11.75,11.75,0,0,0,3.06-.41l.35-.1a8,8,0,0,1,2.64-.45,7.4,7.4,0,0,1,4.66,1.61c5.26,4.19,9.75,6.57,13.33,7.09a27,27,0,0,0,3.93.29h.42c.59,0,1.18,0,1.77,0a4.13,4.13,0,0,0,2.61-.86,4.56,4.56,0,0,0,1.42-2.43l0-.15a5.3,5.3,0,0,1,.42-.9l.23-.44c.29-.58.6-1.15.92-1.71l.46-.79.06-.08a3.34,3.34,0,0,0,.71-1.36l.76.13a41.68,41.68,0,0,0,6.63.58h1.29l.66,0h.06l.86,0,1.21-.09.91-.09.38,0,.16,0,.74-.1.71-.1.16,0h.1a155.14,155.14,0,0,0,19.18,25.12l1.39,1.46a2.08,2.08,0,0,0,1.47.62,2.19,2.19,0,0,0,.67-.11,2.06,2.06,0,0,0,1.38-1.72c.15-1.35.27-2.57.36-3.74.39-4.39.58-8.91.58-13.41a155,155,0,0,0-1.5-21.58c-.29-2.08-.63-4.21-1-6.33a153.2,153.2,0,0,0-6.88-25.24c-.12-.33-.25-.68-.39-1a152.32,152.32,0,0,0-8.12-18,.16.16,0,0,0,0-.07c-.89-1.55-1.75-3.1-2.54-4.61a126.84,126.84,0,0,1-6.53-14.43.42.42,0,0,0,0-.1l0,0,0-.08c-1.25-3.17-2.41-6.43-3.44-9.67a26.61,26.61,0,0,0-11.75-15l-.1-.06a66.61,66.61,0,0,0-13-5.89A65.53,65.53,0,0,0,177,88.57h-.08l-1.17-.23-.71-.12a66.23,66.23,0,0,0-8.1-.9l-.55,0Z"/><path class="cls-2" d="M142.38,212.76a14.66,14.66,0,0,1-11.92-6.38,20.77,20.77,0,0,1-2.74-6.6,65.28,65.28,0,0,0-3.6-10.06c-2.46-5.26-6.69-12.73-12.84-18.47-2.33-2.17-4.78-4.31-7.28-6.36l-.62-.51c-1.5-1.22-3-2.42-4.56-3.56-3.21-2.41-6.59-4.75-10-6.94a17.17,17.17,0,0,1-5.89-6.31l0-.09a153.45,153.45,0,0,0-16.63-24.59,13.89,13.89,0,0,1-1.69-15.35A64.6,64.6,0,0,1,73.67,94.4l0-.06a64.54,64.54,0,0,1,91.84-4.25l.43.41a11.1,11.1,0,0,1,2.78,12.18,152.49,152.49,0,0,0-10,44.67c-.26,3.63-.39,7.32-.39,11,0,1.18,0,2.35,0,3.52.09,4.06.35,8.22.77,12.36.11,1.09.3,2.2.48,3.27a23.87,23.87,0,0,1,.48,6.59,25.85,25.85,0,0,1-1.05,4.32c-.24.81-.49,1.63-.69,2.45-.62,2.47-1,4.95-1.46,7.5,0,0,0,.12,0,.18A14.6,14.6,0,0,1,142.38,212.76Z"/><path class="cls-3" d="M121.73,74a63.24,63.24,0,0,1,43.11,16.87l.23.21.22.21a10.06,10.06,0,0,1,2.52,11,153.57,153.57,0,0,0-10.1,45c-.26,3.66-.39,7.37-.39,11.06,0,1.3,0,2.46,0,3.54.09,4.09.35,8.28.78,12.45.11,1.12.3,2.24.48,3.33a22.6,22.6,0,0,1,.48,6.29,25.79,25.79,0,0,1-1,4.15c-.24.81-.5,1.65-.71,2.5-.62,2.51-1,5-1.46,7.54a2.09,2.09,0,0,0,0,.35,13.56,13.56,0,0,1-13.5,13.25,13.79,13.79,0,0,1-11.08-5.94,19.79,19.79,0,0,1-2.59-6.29,65.38,65.38,0,0,0-3.66-10.21c-2.5-5.34-6.8-12.94-13.07-18.79-2.35-2.18-4.81-4.34-7.32-6.39l-.63-.53c-1.52-1.23-3.06-2.44-4.59-3.57-3.23-2.44-6.63-4.79-10.11-7a16.29,16.29,0,0,1-5.54-5.94l0-.07A153.67,153.67,0,0,0,67,122.24l0-.07A12.78,12.78,0,0,1,65.44,108a63.18,63.18,0,0,1,9-12.9.39.39,0,0,0,.08-.1A63.33,63.33,0,0,1,121.73,74m0-2.06A65.4,65.4,0,0,0,72.91,93.7h0a65.4,65.4,0,0,0-9.29,13.36,14.89,14.89,0,0,0,1.75,16.41l.06.07A152,152,0,0,1,82,148l0,0a18.32,18.32,0,0,0,6.25,6.69q5.13,3.25,10,6.9c1.54,1.14,3,2.32,4.53,3.53l.62.51c2.47,2,4.89,4.14,7.23,6.32,5.32,5,9.54,11.6,12.61,18.15a64.1,64.1,0,0,1,3.54,9.9,22.22,22.22,0,0,0,2.88,6.91,15.79,15.79,0,0,0,12.77,6.82,15.56,15.56,0,0,0,15.56-15.27v0c.4-2.47.83-5,1.43-7.41a56.76,56.76,0,0,0,1.77-6.9c.41-3.32-.62-6.78-1-10.08q-.62-6.08-.76-12.29c0-1.16,0-2.32,0-3.49q0-5.51.38-10.91a151.54,151.54,0,0,1,10-44.37,12.18,12.18,0,0,0-3-13.3l-.44-.42A65.34,65.34,0,0,0,121.73,71.9Z"/><path class="cls-2" d="M207.4,149.86a1.38,1.38,0,0,1-.6-.13,9,9,0,0,1-4.12-4.17,38.49,38.49,0,0,1,5.25,1.54,1.41,1.41,0,0,1,.71,2A1.45,1.45,0,0,1,207.4,149.86Z"/><path class="cls-3" d="M205.09,147.24c.83.24,1.66.52,2.48.82a.34.34,0,0,1,.21.22.38.38,0,0,1-.05.36.4.4,0,0,1-.33.2.23.23,0,0,1-.14,0,7.9,7.9,0,0,1-2.17-1.56m-4-3a9.92,9.92,0,0,0,5.24,6.45,2.43,2.43,0,0,0,3.15-1l0-.05a2.44,2.44,0,0,0-1.25-3.51,41,41,0,0,0-7.17-1.93Z"/><path class="cls-3" d="M209.53,149.64l0,.05a2.43,2.43,0,0,1-3.15,1,9.92,9.92,0,0,1-5.24-6.45,41,41,0,0,1,7.17,1.93A2.44,2.44,0,0,1,209.53,149.64Z"/><path class="cls-3" d="M193.24,142.92c2.34-1,5-1,7.52-.95,2.89.17,5.5.35,8.18,2a2.1,2.1,0,0,1-2.26,3.54,14,14,0,0,0-6.27-3.54,17.74,17.74,0,0,0-7.17-1.08Z"/><path class="cls-2" d="M299.09,277.62a5.16,5.16,0,0,1-.84-.08,120.5,120.5,0,0,1-12.07-3.16l-2.07-.67a151.15,151.15,0,0,1-49.25-27.4c-1.67-1.39-3.37-2.87-5.05-4.4-1.1-1-2.17-2-3.18-3a151.39,151.39,0,0,1-19.81-23.43c-1.56-2.26-3.08-4.62-4.52-7-.11-.17-.2-.31-.28-.45l-.16-.26-.49-.82-.27-.47v0l-.08-.14-.83-1.44c-.14-.25-.84-1.49-.84-1.5l-.18-.32.18,0c.74.16,1.38.28,2,.39a41.45,41.45,0,0,0,6.51.56h1.23l.72,0,.82,0,1.18-.09.89-.08.53-.06.7-.09.87-.13.7-.12h.07A154.3,154.3,0,0,0,235,229c.45.48.91,1,1.38,1.45a153.78,153.78,0,0,0,26.86,22.17l3.73,2.45a171.73,171.73,0,0,0,18.76,11.18c11.8,4.76,15.45,7.39,15.79,8.23a.25.25,0,0,0,0,.08C301.53,275.47,301.27,277.62,299.09,277.62Z"/><path class="cls-3" d="M201.16,204.53h.06a41.91,41.91,0,0,0,6.64.58h1.26l.74,0,.85,0c.42,0,.82-.05,1.21-.09l.89-.08.42,0,.17,0,.73-.1.69-.1.16,0,.12,0a155.14,155.14,0,0,0,19.17,25.11l1.39,1.46a155.39,155.39,0,0,0,27,22.32l3.73,2.45a171.52,171.52,0,0,0,18.87,11.24l.14.07c10.21,4.12,14.19,6.64,15.06,7.56-.08,1.2-.55,1.81-1.42,1.81a4,4,0,0,1-.65-.06,119.54,119.54,0,0,1-12-3.14l-2.05-.66a149.92,149.92,0,0,1-48.92-27.22c-1.67-1.38-3.35-2.85-5-4.37-1.08-1-2.14-2-3.16-3a150.94,150.94,0,0,1-19.68-23.27c-1.54-2.24-3-4.58-4.48-7l0-.06-.25-.41-.15-.25-.47-.79L202,206v0l-.06-.09h0l-.06-.1-.06-.09-.64-1.12m-4-3c.21.4.43.8.65,1.2l.65,1.19h0c.14.25.28.49.41.74l.42.75.73,1.25.11.2,0,0v0l0,.07c.25.43.5.87.77,1.3.14.23.28.47.43.7,1.45,2.4,3,4.76,4.55,7.07a153,153,0,0,0,19.94,23.58q1.58,1.53,3.21,3,2.49,2.27,5.08,4.43a152.11,152.11,0,0,0,49.59,27.58l2.08.68a121.52,121.52,0,0,0,12.19,3.19,5.67,5.67,0,0,0,1,.1c3.56,0,3.48-4.08,3.48-4.12.38-2.37-12.84-7.81-16.35-9.22-8.4-4.18-14.21-8.24-22.39-13.57a153,153,0,0,1-26.69-22c-.46-.47-.91-1-1.36-1.43a152,152,0,0,1-19.65-26l-.78.14-.68.11-.15,0-.67.1-.7.09-.52.06-.88.08c-.38,0-.76.06-1.14.08s-.54,0-.81,0-.47,0-.71,0l-.86,0h-.33a40.07,40.07,0,0,1-6.34-.54c-.64-.11-1.26-.23-1.89-.36l-.2,0-.28-.06h-.08l-.67-.16h-.05l-.35-.09-.62-.16-.26-.07Z"/></g></g></svg>