<svg xmlns="http://www.w3.org/2000/svg" viewBox="0 0 1319.4 183.28"><defs><style>.cls-1{fill:#d3ad62;}</style></defs><g id="Layer_2" data-name="Layer 2"><g id="main"><path class="cls-1" d="M144.28,103.68a61.58,61.58,0,0,1,6.73.43,46.21,46.21,0,0,1,8,1.66,41,41,0,0,1,8.21,3.52,26.39,26.39,0,0,1,7.22,6,30,30,0,0,1,5.12,9,35.45,35.45,0,0,1,2,12.52,42.66,42.66,0,0,1-4.14,18.89,42.15,42.15,0,0,1-11.91,14.68,56.43,56.43,0,0,1-18.94,9.57,86.4,86.4,0,0,1-25.12,3.39q-6.42,0-12.78-.37c-4.23-.24-8.27-.55-12.09-.92s-7.34-.83-10.55-1.36-6-1.09-8.27-1.67V150q10.86,2.59,21.23,4a149.41,149.41,0,0,0,20.36,1.42q13,0,20.67-3.52t7.72-11.29a12.73,12.73,0,0,0-.93-5.25,6.87,6.87,0,0,0-3.08-3.21,16.43,16.43,0,0,0-5.8-1.6,77.57,77.57,0,0,0-9-.43q-6.79,0-12.41.18t-9.93.19a51.51,51.51,0,0,1-18.21-3,36.92,36.92,0,0,1-13.08-8.15,33.79,33.79,0,0,1-7.9-12.16,41.72,41.72,0,0,1-2.65-15,37.7,37.7,0,0,1,2.65-13.83,35,35,0,0,1,8-12.09A40.05,40.05,0,0,1,88.62,57.7,47.78,47.78,0,0,1,107,54.43c2.79,0,5.68.06,8.64.18s5.76.19,8.39.19c2,0,3.93,0,5.86-.06a16.5,16.5,0,0,0,5.31-.93,8.58,8.58,0,0,0,3.89-2.71,8.78,8.78,0,0,0,1.48-5.56,11.87,11.87,0,0,0-2.28-7,18,18,0,0,0-7-5.49,45.58,45.58,0,0,0-11.91-3.58,98.26,98.26,0,0,0-17.22-1.3q-16.41,0-29.12,4.81A58.89,58.89,0,0,0,51.65,46.59a57.9,57.9,0,0,0-13.2,21.29,81.49,81.49,0,0,0-4.51,27.9,126.7,126.7,0,0,0,1.3,17.4,159.26,159.26,0,0,0,4,19.5,172.38,172.38,0,0,0,7,20.55A162,162,0,0,0,56.4,173.78l-32.46,9.5a203.15,203.15,0,0,1-10.24-23q-4.44-11.91-7.53-23.46a190.77,190.77,0,0,1-4.63-22.33A141.51,141.51,0,0,1,0,94.54Q0,72.82,7.41,55.36A84.33,84.33,0,0,1,28.33,25.55a93,93,0,0,1,32.39-19Q79.61,0,102.69,0A128.32,128.32,0,0,1,130,2.84a80.91,80.91,0,0,1,22.89,8.45,47.84,47.84,0,0,1,15.74,14,32.69,32.69,0,0,1,5.86,19.32q0,17.64-10.49,27.27t-32.58,9.63c-2.89,0-5.7-.08-8.46-.25s-5.7-.24-8.82-.24q-7,0-11.23,3.08a10.11,10.11,0,0,0-4.2,8.64,9.69,9.69,0,0,0,4.2,8.33q4.19,3,11.23,3,3,0,6.72-.07l7.78-.12,8.08-.12Q140.83,103.68,144.28,103.68Z"/><path class="cls-1" d="M523.69,152.3h40.85V110.71a116.81,116.81,0,0,1-31.23-7.1A79.56,79.56,0,0,1,510.17,90.1a55.47,55.47,0,0,1-14.38-18.82,54.2,54.2,0,0,1-4.94-23,47.1,47.1,0,0,1,4-19.63,45.52,45.52,0,0,1,11-15.24,50.22,50.22,0,0,1,16.66-9.87,64.92,64.92,0,0,1,42.52.12,48.26,48.26,0,0,1,16.36,10.12,46,46,0,0,1,10.61,15.55,57.39,57.39,0,0,1,4.32,19.81q.38,8,.37,15.55V80.35A106.41,106.41,0,0,0,621.93,71a116.64,116.64,0,0,0,23.33-16.11,139.69,139.69,0,0,0,20.42-22.65,153.78,153.78,0,0,0,16.48-29H707V180.07H438V160.2q22.59-12.82,22.59-33.2a33,33,0,0,0-1-8.27,15.69,15.69,0,0,0-3.7-6.78,19.56,19.56,0,0,0-7.47-4.82,44.91,44.91,0,0,0-12.28-2.47c-2.64-.24-5.39-.37-8.27-.37h-6.67q-1.35,20.13-6.48,34.93t-13.45,24.62a52.55,52.55,0,0,1-19.56,14.63,62.34,62.34,0,0,1-24.81,4.81q-18.27,0-31.84-7.83a48.8,48.8,0,0,1-20.24-22q-4.2,14.57-15.25,22.21t-27.83,7.65a55.19,55.19,0,0,1-20.24-3.7,50,50,0,0,1-32.21-47.52q0-14.07,5.12-24.5a48.13,48.13,0,0,1,14.19-17.34,62.09,62.09,0,0,1,21.54-10.3,103.3,103.3,0,0,1,27.28-3.4h12.83q1.6-19.62,7.28-34.06t14.57-23.88a55.81,55.81,0,0,1,20.55-14,67.77,67.77,0,0,1,25-4.57A65.79,65.79,0,0,1,383,4.63,50.81,50.81,0,0,1,402.36,18.7q8.14,9.43,13,23.88t6.05,33.94h7.4q3.33,0,6.61.13c2.18.08,4.29.2,6.35.37a86,86,0,0,1,22.59,4.56A52.17,52.17,0,0,1,480.92,91a38.24,38.24,0,0,1,10.18,14,46.69,46.69,0,0,1,.68,33.51,38.77,38.77,0,0,1-8.95,13.82Zm-258.33,3.09q12.58,0,19-9.87t6.42-27.77V104.29H277.21q-15.93,0-24.93,6.61t-9,20A26.9,26.9,0,0,0,245.06,141a23.89,23.89,0,0,0,4.81,7.72,21.2,21.2,0,0,0,15.49,6.66Zm91.46,0a27.24,27.24,0,0,0,12.52-2.72,23.52,23.52,0,0,0,9.2-8.76,49.74,49.74,0,0,0,6-15.8,141.64,141.64,0,0,0,2.77-23.82H323.74a112.17,112.17,0,0,0,3,23.39,50.15,50.15,0,0,0,6.67,15.86,25.54,25.54,0,0,0,10.12,9A30.35,30.35,0,0,0,356.82,155.39Zm0-127.5a29.91,29.91,0,0,0-12.59,2.6,25,25,0,0,0-9.88,8.39,48.48,48.48,0,0,0-6.85,15.06A108.23,108.23,0,0,0,324,76.52H387.3a124.27,124.27,0,0,0-3-22.46A48.43,48.43,0,0,0,378.17,39a23.65,23.65,0,0,0-9.2-8.45A27.05,27.05,0,0,0,356.82,27.89ZM564.54,72.45q0-4.32-.06-8.45t-.31-6.85a62.11,62.11,0,0,0-1.73-11.61,30.61,30.61,0,0,0-4-9.25A18.89,18.89,0,0,0,552,30.12a18.13,18.13,0,0,0-9.19-2.23,18.86,18.86,0,0,0-7.16,1.36,16,16,0,0,0-5.74,4,18.39,18.39,0,0,0-3.77,6.36A24.93,24.93,0,0,0,524.8,48a28.54,28.54,0,0,0,2.71,12.47,30.48,30.48,0,0,0,7.84,10.06,42.54,42.54,0,0,0,12.53,7.22,69.69,69.69,0,0,0,16.66,3.95ZM674.76,152.3V66.15a96.54,96.54,0,0,1-13.64,14.69,108.12,108.12,0,0,1-17.71,12.59,133.79,133.79,0,0,1-21.6,9.88,145.59,145.59,0,0,1-25.06,6.41V152.3Z"/><path class="cls-1" d="M1014.66,31.47a55.48,55.48,0,0,1,22.1-23.39Q1051,0,1070.08,0a74.55,74.55,0,0,1,31,6.29,67.5,67.5,0,0,1,23.88,18,82,82,0,0,1,15.31,28.27,120.1,120.1,0,0,1,5.37,37.09,156.11,156.11,0,0,1-1.73,22.71,176.79,176.79,0,0,1-5.25,23.75,180.06,180.06,0,0,1-9,24,160.83,160.83,0,0,1-13,23.2l-32.09-9.5a172.65,172.65,0,0,0,20.37-41.9,136,136,0,0,0,6.66-41.41A111.15,111.15,0,0,0,1109,64.92a60.73,60.73,0,0,0-8.21-19.75A38.49,38.49,0,0,0,1087,32.4a40.18,40.18,0,0,0-19.5-4.51,32.82,32.82,0,0,0-15.06,3.58,36.08,36.08,0,0,0-12.22,10.31,51.12,51.12,0,0,0-8.14,16.41,75.21,75.21,0,0,0-3,22v99.84H996.89V80.23q0-26.06-9.44-39.07t-29.19-13a41.81,41.81,0,0,0-16.72,3.27,34.49,34.49,0,0,0-13,9.81,46.4,46.4,0,0,0-8.39,16.3,78.53,78.53,0,0,0-3,22.71v99.84H885V80.23q0-13.45-3.46-23.33A44.48,44.48,0,0,0,872,40.67a37.76,37.76,0,0,0-14.26-9.44A49.87,49.87,0,0,0,840,28.14a60.93,60.93,0,0,0-23.94,4.63,54.18,54.18,0,0,0-19,13.21,61.45,61.45,0,0,0-12.47,20.79,78.86,78.86,0,0,0-4.5,27.4,44.44,44.44,0,0,0,.37,5.56h.86a40,40,0,0,1,14.44-13q9.13-5,21.85-5A53.81,53.81,0,0,1,836.75,85a42.76,42.76,0,0,1,15.06,9.5,43.77,43.77,0,0,1,9.93,15.24,55.09,55.09,0,0,1,3.58,20.49,56.34,56.34,0,0,1-4,21.6,48.58,48.58,0,0,1-11.23,16.72A51.46,51.46,0,0,1,833,179.4a58.85,58.85,0,0,1-68.56-18.89,79.34,79.34,0,0,1-13-26.35,120.77,120.77,0,0,1-4.57-34.31q0-24.19,7.53-42.83a92.44,92.44,0,0,1,20.31-31.35A84.61,84.61,0,0,1,804.29,6.48,98.32,98.32,0,0,1,839.9,0a85.63,85.63,0,0,1,19.5,2.16,74,74,0,0,1,17.15,6.23,63.34,63.34,0,0,1,14.2,9.94,59.36,59.36,0,0,1,10.61,13.14h.74a57.74,57.74,0,0,1,24-23.88,62.69,62.69,0,0,1,15.55-5.74A76,76,0,0,1,958.38,0q19.38,0,33.45,8.08a55,55,0,0,1,21.85,23.39ZM810.52,108.86a23.05,23.05,0,0,0-9.13,1.79,22.39,22.39,0,0,0-12.16,12.22,23.22,23.22,0,0,0-1.79,9.07,25.76,25.76,0,0,0,1.73,9.63,22.72,22.72,0,0,0,4.75,7.46,21.36,21.36,0,0,0,7,4.88,21.76,21.76,0,0,0,8.7,1.73,23.37,23.37,0,0,0,9.25-1.79,22.34,22.34,0,0,0,7.29-4.94,21.78,21.78,0,0,0,4.75-7.47,26.18,26.18,0,0,0,1.66-9.5,24.91,24.91,0,0,0-1.72-9.44,22.31,22.31,0,0,0-4.69-7.28,20.65,20.65,0,0,0-7-4.69A22.42,22.42,0,0,0,810.52,108.86Z"/><path class="cls-1" d="M1247.32,183.28a82.1,82.1,0,0,1-28.64-4.87,67.5,67.5,0,0,1-22.83-13.82,63.45,63.45,0,0,1-15.12-21.73,71.64,71.64,0,0,1-5.49-28.57,71.64,71.64,0,0,1,5.49-28.57,64.72,64.72,0,0,1,15.12-21.85,66.54,66.54,0,0,1,22.83-13.95,86.62,86.62,0,0,1,57.27,0,66.45,66.45,0,0,1,22.83,13.95,64.72,64.72,0,0,1,15.12,21.85,71.64,71.64,0,0,1,5.5,28.57,71.36,71.36,0,0,1-5.5,28.45,63.94,63.94,0,0,1-15.12,21.78A66.78,66.78,0,0,1,1276,178.41,82,82,0,0,1,1247.32,183.28Zm0-27.89a38.13,38.13,0,0,0,15.18-3,35.49,35.49,0,0,0,12.09-8.46,39.53,39.53,0,0,0,8-13,45.85,45.85,0,0,0,2.9-16.66,46.33,46.33,0,0,0-2.9-16.72,40.24,40.24,0,0,0-8-13.09A34.94,34.94,0,0,0,1262.5,76a39.54,39.54,0,0,0-30.36,0,35,35,0,0,0-12.1,8.51,40.42,40.42,0,0,0-8,13.09,46.55,46.55,0,0,0-2.9,16.72,46.06,46.06,0,0,0,2.9,16.66,39.7,39.7,0,0,0,8,13,35.53,35.53,0,0,0,12.1,8.46A38.13,38.13,0,0,0,1247.32,155.39Z"/></g></g></svg>