<svg xmlns="http://www.w3.org/2000/svg" viewBox="0 0 891.84 223.94"><defs><style>.cls-1{fill:#d3ad62;}</style></defs><g id="Layer_2" data-name="Layer 2"><g id="main"><path class="cls-1" d="M113.94,194.18q18.93,0,32.68-1.07a135.74,135.74,0,0,0,22.74-3.4q9-2.31,13.27-6a11.09,11.09,0,0,0,4.29-8.75,10.39,10.39,0,0,0-2.21-6.84,15.76,15.76,0,0,0-6-4.35,36.91,36.91,0,0,1-10.18,6.31,72.9,72.9,0,0,1-12.44,4,98.49,98.49,0,0,1-13.27,2.08q-6.74.6-12.68.6H48.34V152.39h81.79a91.16,91.16,0,0,0,10.53-.65,37,37,0,0,0,11-3.16q-12.63-7.14-18.87-17t-6.25-23.52a30.93,30.93,0,0,1,3.09-13.33A38.39,38.39,0,0,1,138.28,83a43.43,43.43,0,0,1,29.94-11.49A47.25,47.25,0,0,1,186.68,75a41.94,41.94,0,0,1,13.63,8.92,37.38,37.38,0,0,1,8.39,12.68,39.37,39.37,0,0,1,2.86,14.77,49.49,49.49,0,0,1-3.39,18.27A54.91,54.91,0,0,1,199.06,145a37.91,37.91,0,0,1,9.23,6.31,33.31,33.31,0,0,1,6,7.38,28.94,28.94,0,0,1,3.15,7.74,31.62,31.62,0,0,1,1,7.5q0,13.22-7.62,22.68t-21.37,15.54q-13.76,6.06-33,8.93a290.7,290.7,0,0,1-42.44,2.85q-26.79,0-47.92-4.82T30.24,204.6A66.35,66.35,0,0,1,7.8,180.19Q0,165.49,0,145.72A78,78,0,0,1,19.76,93.64,69.14,69.14,0,0,1,41.25,77.5a59.72,59.72,0,0,1,26.25-6q11.09,0,18.87,3.69a38.44,38.44,0,0,1,12.74,9.35A35.37,35.37,0,0,1,106.26,97a42.24,42.24,0,0,1,2.2,13,38.46,38.46,0,0,1-2.74,14.46,36.34,36.34,0,0,1-7.8,12,37.7,37.7,0,0,1-12.26,8.27,40.67,40.67,0,0,1-16.25,3.1A38.22,38.22,0,0,1,57.15,146a33.42,33.42,0,0,1-9.77-5.12A31.1,31.1,0,0,1,40.12,133,42.52,42.52,0,0,1,35.36,123H34.05a46,46,0,0,0-1.55,4.83c-.47,1.78-.89,3.65-1.25,5.59s-.65,4-.89,6.07A54.21,54.21,0,0,0,30,145.6q0,12.39,4.23,20.78a40.26,40.26,0,0,0,11.13,13.81,50.25,50.25,0,0,0,15.72,8.27,102.11,102.11,0,0,0,18.15,4.11A163.91,163.91,0,0,0,97.63,194Q106.68,194.18,113.94,194.18ZM69.41,121.56a11.44,11.44,0,0,0,4.76-1,14.35,14.35,0,0,0,4-2.68,12,12,0,0,0,2.8-4,12.33,12.33,0,0,0,1-4.94,12.15,12.15,0,0,0-4.23-9.71A15.78,15.78,0,0,0,67.15,95.6a23,23,0,0,0-7.74,1.31,20.77,20.77,0,0,0-3,10.6q0,6.42,3.75,10.24A12.45,12.45,0,0,0,69.41,121.56ZM182.75,111.2a19.06,19.06,0,0,0-.77-5.12,14.94,14.94,0,0,0-2.56-5.06,14.74,14.74,0,0,0-4.53-3.87,13.37,13.37,0,0,0-6.67-1.55,11.18,11.18,0,0,0-5.17,1.19A13.26,13.26,0,0,0,159,100a14.08,14.08,0,0,0-2.62,4.58,15.86,15.86,0,0,0-.89,5.3,19.12,19.12,0,0,0,4.22,11.84q4.23,5.53,14.47,9.35a36.12,36.12,0,0,0,6.19-9.35A24.92,24.92,0,0,0,182.75,111.2Z"/><path class="cls-1" d="M445.5,55.12a30,30,0,0,1,2.92-13.21,32.06,32.06,0,0,1,8.1-10.54,37.64,37.64,0,0,1,12.26-7,45.55,45.55,0,0,1,15.3-2.5,40.13,40.13,0,0,1,12.2,1.72,41,41,0,0,1,17.26,10.6A71.14,71.14,0,0,1,519.32,41l-17.15,18.1q-1.91-2.14-4-4.11a31.64,31.64,0,0,0-4.35-3.45,25.94,25.94,0,0,0-4.7-2.44,13.94,13.94,0,0,0-5.06-.95,13.43,13.43,0,0,0-3.57.53,11.67,11.67,0,0,0-3.46,1.61A9.08,9.08,0,0,0,474.49,53a7.46,7.46,0,0,0-1,3.93A13.68,13.68,0,0,0,475,63.63a17,17,0,0,0,4.05,4.89,31.93,31.93,0,0,0,5.83,3.81c2.22,1.15,4.53,2.32,6.91,3.51a40.21,40.21,0,0,1,10.71,6.31,13.17,13.17,0,0,1,2,1.66,40.32,40.32,0,0,1,9.94,13.52,37.39,37.39,0,0,1,3.27,15.18,35.13,35.13,0,0,1-3.45,16A36.19,36.19,0,0,1,505.45,140a37.38,37.38,0,0,1-12.15,6.9A40.44,40.44,0,0,1,480,149.18a39.65,39.65,0,0,1-13.1-2.33,36.89,36.89,0,0,1-12-6.9,36.47,36.47,0,0,1-8.81-11.43,35.13,35.13,0,0,1-3.45-16,32.83,32.83,0,0,1,1.13-8.46,24.35,24.35,0,0,1,3.63-7.85H403.48a90.06,90.06,0,0,1,11,12.2,78.68,78.68,0,0,1,8.75,14.88A88.28,88.28,0,0,1,429,141a96.3,96.3,0,0,1,2.09,20.6q0,16.19-4.59,27.92A53.44,53.44,0,0,1,414,208.88a49.94,49.94,0,0,1-18.81,11.37,71.51,71.51,0,0,1-23.21,3.69,47.44,47.44,0,0,1-11.91-1.6,58.45,58.45,0,0,1-12.08-4.65,54.67,54.67,0,0,1-11-7.5A42.53,42.53,0,0,1,328.35,200,56.69,56.69,0,0,1,320,211a45.58,45.58,0,0,1-9.46,7.44,39.7,39.7,0,0,1-10.12,4.16,41.62,41.62,0,0,1-10.3,1.31,47.82,47.82,0,0,1-17.27-3.15,46,46,0,0,1-14.52-8.87,42.13,42.13,0,0,1-13.81-31.79,40.08,40.08,0,0,1,3.81-17.5,42.68,42.68,0,0,1,10.24-13.69,48.65,48.65,0,0,1,32.14-12.15,40.44,40.44,0,0,1,26.49,8.93,56,56,0,0,1,9.11,9.23q4.05,5.18,7.74,10.54T341.45,176a58.46,58.46,0,0,0,8.1,9.23,36.67,36.67,0,0,0,9.82,6.49,30.27,30.27,0,0,0,12.56,2.44,25.71,25.71,0,0,0,11.9-2.68,26.73,26.73,0,0,0,8.81-7.14,32.27,32.27,0,0,0,5.48-10.42,40.79,40.79,0,0,0,1.91-12.5,59.62,59.62,0,0,0-4.65-23.87,66.65,66.65,0,0,0-12.14-18.93,70.19,70.19,0,0,0-16.85-13.51,67.91,67.91,0,0,0-18.63-7.5l4.4-27h98a25.84,25.84,0,0,1-3.52-7.2A28.73,28.73,0,0,1,445.5,55.12ZM307.28,94.05H294.66l-47.5-47V45.36l20.36-19.88L301,66.79,357.4,0l21.67,21.19v1.67ZM309,180.13a25.87,25.87,0,0,0-3.22-5.54,28.78,28.78,0,0,0-4.52-4.76,21.11,21.11,0,0,0-5.3-3.27,14.37,14.37,0,0,0-5.65-1.19,18.88,18.88,0,0,0-6,.95,14.84,14.84,0,0,0-5,2.8,13.65,13.65,0,0,0-3.45,4.64,14.92,14.92,0,0,0-1.31,6.37,15.22,15.22,0,0,0,1.31,6.49,15,15,0,0,0,3.45,4.76,14.59,14.59,0,0,0,5,3,17.85,17.85,0,0,0,6,1,13.9,13.9,0,0,0,5.83-1.31,22.86,22.86,0,0,0,5.36-3.45,28,28,0,0,0,4.46-4.88A24.4,24.4,0,0,0,309,180.13Zm171-56.55a12.54,12.54,0,0,0,8.16-2.86q3.51-2.85,3.51-8.21a12.12,12.12,0,0,0-1.31-5.78,15.18,15.18,0,0,0-3.1-4,13.62,13.62,0,0,0-3.75-2.44,11.65,11.65,0,0,0-3.27-.95,11,11,0,0,0-3.22.95,14,14,0,0,0-3.69,2.44,15,15,0,0,0-3.09,4,12,12,0,0,0-1.31,5.78q0,5.35,3.33,8.21A11.5,11.5,0,0,0,479.91,123.58Z"/><path class="cls-1" d="M618.25,223.94a89.48,89.48,0,0,1-40.06-9.46,78.86,78.86,0,0,1-16.73-11.31,72.84,72.84,0,0,1-21.78-34.23,76.8,76.8,0,0,1-3.1-22.15,72.83,72.83,0,0,1,24.88-55.36,82.68,82.68,0,0,1,16.67-11.31A86,86,0,0,1,597.36,73a90.43,90.43,0,0,1,41.73,0,85.89,85.89,0,0,1,19.28,7.08A82.4,82.4,0,0,1,675,91.43a72.82,72.82,0,0,1,24.88,55.36A77,77,0,0,1,696.83,169,73,73,0,0,1,675,203.17a78.8,78.8,0,0,1-16.72,11.31,89.48,89.48,0,0,1-40.07,9.46Zm13-143H592.18L557.89,47V45.36l20.36-19.88L611.7,66.79,668.14,0,689.8,21.19v1.67Zm-13,17.38a56.32,56.32,0,0,0-20.18,3.51,48,48,0,0,0-16,9.82,44.75,44.75,0,0,0-10.54,15.18,49.49,49.49,0,0,0-3.81,19.71,51.16,51.16,0,0,0,3.81,19.94,46.95,46.95,0,0,0,26.49,26,56.86,56.86,0,0,0,40.3,0,46.74,46.74,0,0,0,26.55-26,51.16,51.16,0,0,0,3.81-19.94,49.49,49.49,0,0,0-3.81-19.71,44.86,44.86,0,0,0-10.53-15.18,48,48,0,0,0-16-9.82A56.45,56.45,0,0,0,618.25,98.34Z"/><path class="cls-1" d="M810.17,223.94a89.4,89.4,0,0,1-40.06-9.46,78.86,78.86,0,0,1-16.73-11.31,72.76,72.76,0,0,1-21.79-34.23,77.15,77.15,0,0,1-3.09-22.15,72.73,72.73,0,0,1,24.88-55.36,82.68,82.68,0,0,1,16.67-11.31A86,86,0,0,1,789.28,73,90.39,90.39,0,0,1,831,73a85.8,85.8,0,0,1,19.29,7.08A82.68,82.68,0,0,1,867,91.43a72.82,72.82,0,0,1,24.88,55.36A77,77,0,0,1,888.75,169,73.17,73.17,0,0,1,867,203.17a78.86,78.86,0,0,1-16.73,11.31,89.48,89.48,0,0,1-40.06,9.46Zm0-125.6A56.32,56.32,0,0,0,790,101.85a48,48,0,0,0-16,9.82,44.75,44.75,0,0,0-10.54,15.18,53,53,0,0,0,0,39.47A45.24,45.24,0,0,0,774,181.62a47.33,47.33,0,0,0,16,9.88,59.59,59.59,0,0,0,40.3,0,47.21,47.21,0,0,0,16-9.88,45.24,45.24,0,0,0,10.54-15.3,53,53,0,0,0,0-39.47,44.75,44.75,0,0,0-10.54-15.18,47.87,47.87,0,0,0-16-9.82A56.45,56.45,0,0,0,810.17,98.34Z"/></g></g></svg>