<svg xmlns="http://www.w3.org/2000/svg" viewBox="0 0 522.28 170.32"><defs><style>.cls-1{fill:#d3ad62;}</style></defs><g id="Layer_2" data-name="Layer 2"><g id="main"><path class="cls-1" d="M160,163.56a87.26,87.26,0,0,1-10,3.33q-5,1.34-9.7,2.1c-3.1.52-6.06.87-8.86,1.06s-5.36.27-7.65.27a88.62,88.62,0,0,1-31.3-5.65,100.52,100.52,0,0,1-29.09-17.28,154.79,154.79,0,0,1-26.65-29.48A272,272,0,0,1,12.63,75.69L35.9,62.28q4,8.86,7.48,12.13t6.71,3.27q4.75,0,8-5.43t3.21-14.51A61.86,61.86,0,0,0,59,41.5a100.17,100.17,0,0,0-6.09-16.57H0V0H225.51V24.93H201.35v140.3H172.43V119.68l-.44-.11a39.38,39.38,0,0,1-12.91,7,44.48,44.48,0,0,1-12.91,2A44,44,0,0,1,128.66,125,46,46,0,0,1,114,115.14a47.89,47.89,0,0,1-10.08-15,46.86,46.86,0,0,1-3.77-18.89,49.35,49.35,0,0,1,2.6-16,40.2,40.2,0,0,1,7.7-13.52A37.61,37.61,0,0,1,123,42.39a39,39,0,0,1,16.9-3.49,44.86,44.86,0,0,1,17.56,3.32A61.32,61.32,0,0,1,172,50.86l.44-.11V24.93H82a110,110,0,0,1,5.88,17,69,69,0,0,1,2,16.68,63.63,63.63,0,0,1-1.49,13.8,41.39,41.39,0,0,1-4.94,12.41A37.92,37.92,0,0,1,74.36,95a43.33,43.33,0,0,1-14,7.15v.56a133.22,133.22,0,0,0,18.29,21.88,87.38,87.38,0,0,0,17.51,13,58.85,58.85,0,0,0,16.45,6.26,75.63,75.63,0,0,0,15.13,1.61,70.56,70.56,0,0,0,15.68-1.72A106.31,106.31,0,0,0,160,138.41Zm13.41-87.43c-1.11-1.11-2.57-2.45-4.38-4A45.61,45.61,0,0,0,163,67.6a40.2,40.2,0,0,0-7.42-3.6,24.19,24.19,0,0,0-8.48-1.5,19.59,19.59,0,0,0-8.36,1.72,19,19,0,0,0-6.26,4.54,20.24,20.24,0,0,0-3.94,6.48,22,22,0,0,0,.33,16.18,22.27,22.27,0,0,0,4.71,7,22.69,22.69,0,0,0,7,4.77,21.73,21.73,0,0,0,8.81,1.77,26.44,26.44,0,0,0,8-1.33,22.4,22.4,0,0,0,7.81-4.37,23.18,23.18,0,0,0,5.93-8,29,29,0,0,0,2.33-12.3Z"/><path class="cls-1" d="M295.32,24.93H271.17v140.3H242.24V24.93H217.75V0h77.57Z"/><path class="cls-1" d="M452.46,24.93H428.3v140.3h-31V86.88h-48q0,7.53-.22,12.8a34.93,34.93,0,0,1-1.22,8.53,8.73,8.73,0,0,1-3.1,4.77,10.07,10.07,0,0,1-5.87,1.49,23.38,23.38,0,0,1-9.15-1.88,35.41,35.41,0,0,1-8.42-5,45.39,45.39,0,0,1-7.2-7.32,55.75,55.75,0,0,1-5.65-8.7,48.76,48.76,0,0,1-3.72-9.14,31.54,31.54,0,0,1-1.33-8.7,13.83,13.83,0,0,1,1.28-6.48,7.84,7.84,0,0,1,3.6-3.49,16.37,16.37,0,0,1,5.65-1.39q3.33-.27,7.54-.27h75.8V24.93H287.57V0H452.46Z"/><path class="cls-1" d="M522.28,24.93H498.12v140.3H469.19V24.93H444.7V0h77.58Z"/></g></g></svg>