<svg xmlns="http://www.w3.org/2000/svg" viewBox="0 0 578.14 183.28"><defs><style>.cls-1{fill:#d3ad62;}</style></defs><g id="Layer_2" data-name="Layer 2"><g id="main"><path class="cls-1" d="M175.21,127.49H38.37c5.05,16.16,21.46,27,50,27,29.54,0,40.65-9.59,46.45-16.15h38.38c-6.57,18.43-29.79,44.93-85.59,44.93C30.29,183.28,0,153,0,115.88S30.29,48.47,88.11,48.47c57.56,0,87.85,30.3,87.85,67.91A82.94,82.94,0,0,1,175.21,127.49ZM38.12,105h99.72c-4.8-16.41-21-27.52-49.73-27.52S42.92,88.61,38.12,105Z"/><path class="cls-1" d="M197.43,118.4c0-35.09,25.75-60.84,75-60.84,40.14,0,57.56,14.9,63.61,32.57h3.29V87.35c0-31.81-23-54.53-74.73-54.53-22.72,0-45.44,3.53-64.63,10.86V10.86C217.37,3.53,238.83,0,265.34,0c72,0,109.82,38.12,109.82,99,0,18.43-3.54,33.83-11.37,46.71-13.38,24-40.39,37.61-80,37.61C224.44,183.28,197.43,156,197.43,118.4Zm136.83,1.52c0-17.67-14.9-32.32-48.73-32.32s-48.47,14.65-48.47,32.32c0,17.16,14.64,32.06,48.47,32.06S334.26,137.08,334.26,119.92Z"/><path class="cls-1" d="M399.14,144.41c0-22,16.41-38.38,59.08-38.38,32.57,0,49.48,7.32,64.88,15.4v-9.34c0-19.19-14.39-33.32-44.94-33.32-28,0-39.89,10.6-43.17,21.2H395.36c3.28-27.77,27.77-51.5,83.31-51.5,56.8,0,83.31,26.76,83.31,65.14v27.26c0,6.82,3,9.59,9.09,9.59a23.86,23.86,0,0,0,7.07-1v31.06a57.83,57.83,0,0,1-17.68,2.77c-21,0-31.3-10.6-31.3-25v-1h-4.29V158c0,11.61-20.2,25.24-66.65,25.24C415.55,183.28,399.14,166.87,399.14,144.41Zm124,1.51v-7.07c-13.63-5.3-28.28-9.84-50-9.84-27.77,0-33.57,6.05-33.57,13.63,0,7.82,5.8,13.63,33.57,13.63C495.08,156.27,510.48,151.73,523.1,145.92Z"/></g></g></svg>