<svg xmlns="http://www.w3.org/2000/svg" viewBox="0 0 679.9 170.32"><defs><style>.cls-1{fill:#d3ad62;}</style></defs><g id="Layer_2" data-name="Layer 2"><g id="main"><path class="cls-1" d="M34.72,167.3V82H0V54.76H42.64v-3.5c-19.11-.7-30.52-9.09-30.52-22.6C12.12,14,26.33,0,83.88,0c52.43,0,71.77,19.11,71.77,44.27V45H118.83V44c0-9.09-7.69-16.78-35.65-16.78-28.89,0-35.65,6.76-35.65,14,0,6.76,7,10.72,12.35,13h73.63V82h-62V167.3Z"/><path class="cls-1" d="M150.28,108.11c0-34.25,28-62.21,82.72-62.21,54.52,0,82.48,28,82.48,62.21s-28,62.21-82.48,62.21C178.25,170.32,150.28,142.36,150.28,108.11Zm128.62,0C278.9,90.17,263.76,75,233,75c-31,0-46.13,15.14-46.13,33.08,0,18.18,15.14,33.32,46.13,33.32C263.76,141.43,278.9,126.29,278.9,108.11Z"/><path class="cls-1" d="M334.12,108.11c0-34.25,28-62.21,82.72-62.21,54.52,0,82.48,28,82.48,62.21s-28,62.21-82.48,62.21C362.08,170.32,334.12,142.36,334.12,108.11Zm128.62,0c0-17.94-15.15-33.08-45.9-33.08-31,0-46.14,15.14-46.14,33.08,0,18.18,15.15,33.32,46.14,33.32C447.59,141.43,462.74,126.29,462.74,108.11Z"/><path class="cls-1" d="M519.12,108.11c0-36.58,25.4-62.21,66.18-62.21,33.32,0,52.42,13.52,59.64,35.18h3.73c-2.79-13.51-5.36-27-5.36-42.63V4.19H679.9V167.3H643.31l5.36-31.93h-3.73c-7.22,21.44-26.32,34.95-59.64,34.95C544.52,170.32,519.12,144.93,519.12,108.11Zm123.73,0c0-18.4-14.91-33.08-43.57-33.08-28.9,0-43.57,14.68-43.57,33.08s14.67,33.32,43.57,33.32C627.94,141.43,642.85,126.52,642.85,108.11Z"/></g></g></svg>