<svg xmlns="http://www.w3.org/2000/svg" viewBox="0 0 908.8 192.38"><defs><style>.cls-1{fill:#d3ad62;}</style></defs><g id="Layer_2" data-name="Layer 2"><g id="main"><path class="cls-1" d="M31.83,142.77a36.18,36.18,0,0,1-12.49-2.09,30.77,30.77,0,0,1-10-5.92,27.19,27.19,0,0,1-6.85-9.59,32.24,32.24,0,0,1-2.44-13,32.7,32.7,0,0,1,2.32-12.6,26.71,26.71,0,0,1,6.8-9.7,30.67,30.67,0,0,1,11-6.28,47.15,47.15,0,0,1,15-2.2H68.54Q89,81.44,99.33,75t10.33-21.78a32.49,32.49,0,0,0-2.44-13.13,23.72,23.72,0,0,0-7-9.24A30.65,30.65,0,0,0,89,25.38a56.79,56.79,0,0,0-14.87-1.8q-2.33,0-3.78.12c-1,.08-1.84.15-2.61.23v.35q6.61,4.41,9.23,10a26.12,26.12,0,0,1,2.62,11.09A24.64,24.64,0,0,1,77,56.52a28.38,28.38,0,0,1-7.55,9.35,38.34,38.34,0,0,1-12,6.5,48.14,48.14,0,0,1-15.86,2.44,48.87,48.87,0,0,1-15.28-2.26,36.81,36.81,0,0,1-12-6.39,28.63,28.63,0,0,1-7.84-9.93,29.69,29.69,0,0,1-2.79-13,32,32,0,0,1,5-17.43A44.72,44.72,0,0,1,22.65,12.14a73.15,73.15,0,0,1,21.49-9A113,113,0,0,1,71.91,0a101.65,101.65,0,0,1,29.51,3.89A61.29,61.29,0,0,1,122.91,15a46.61,46.61,0,0,1,13.18,17.36,55.86,55.86,0,0,1,4.48,22.71,54.71,54.71,0,0,1-4.3,22.13A43.71,43.71,0,0,1,123.6,93.81a59.16,59.16,0,0,1-20.5,10.45,96.47,96.47,0,0,1-27.82,3.66H41.59a32.89,32.89,0,0,0-8.08.76c-1.89.5-2.84,1.53-2.84,3.08q0,3.83,8.94,3.83H242.8v27.18ZM53.55,40.43a9.6,9.6,0,0,0-3.6-7.9A16.5,16.5,0,0,0,41.24,29,16.05,16.05,0,0,0,33,32.88a9.86,9.86,0,0,0-3.37,7.66A9.83,9.83,0,0,0,32.82,48q3.2,3,8.77,3a12.58,12.58,0,0,0,8.71-2.91A9.76,9.76,0,0,0,53.55,40.43Z"/><path class="cls-1" d="M628.48,31.48V142.77H599V31.48H585.38q-7.67,0-14.17.06t-13.71.17a64,64,0,0,1,14.29,22.37q5.34,13.53,5.34,31a83.19,83.19,0,0,1-3.42,24.57,56.44,56.44,0,0,1-9.88,19A44.05,44.05,0,0,1,548.09,141a48.62,48.62,0,0,1-20.91,4.36,47.41,47.41,0,0,1-21.49-4.65A45,45,0,0,1,490.12,128a56.09,56.09,0,0,1-9.47-18.7,79.16,79.16,0,0,1-3.19-22.77,94.59,94.59,0,0,1,1.22-14.93,80.17,80.17,0,0,1,10.69-29,69.8,69.8,0,0,1,9.93-12.72,106.26,106.26,0,0,0-12.55-1.81q-6.27-.51-13.24-.52-3.84,0-7.09.18c-2.17.11-4.3.29-6.39.52s-4.22.52-6.39.87-4.49.76-7,1.22a61.66,61.66,0,0,1,8.83,10.57,76,76,0,0,1,6.86,12.9,78.24,78.24,0,0,1,4.47,15,88.1,88.1,0,0,1,1.57,16.85,80.35,80.35,0,0,1-3.43,24,55.71,55.71,0,0,1-9.87,18.87,45.53,45.53,0,0,1-15.75,12.38,51.82,51.82,0,0,1-42.75-.29,46.87,46.87,0,0,1-15.79-12.84,56.31,56.31,0,0,1-9.65-18.65,74.9,74.9,0,0,1-3.25-22.18,77.06,77.06,0,0,1,6-30.09,82.83,82.83,0,0,1,17.95-26.37,119,119,0,0,0-14.69-2.21c-5.16-.47-10-.7-14.58-.7A99,99,0,0,0,337,30.44a73.4,73.4,0,0,0-18.36,7.37,48.94,48.94,0,0,0-12.25,9.94,55,55,0,0,0-7.32,10.51,39.88,39.88,0,0,0-3.54,9.06,29.29,29.29,0,0,0-.93,5.75l.69.12a47.89,47.89,0,0,1,11.74-7,38.49,38.49,0,0,1,15.45-3,39.71,39.71,0,0,1,14.17,2.55,34.94,34.94,0,0,1,11.85,7.44,34.54,34.54,0,0,1,8.07,12.08,43,43,0,0,1,3,16.49A45.57,45.57,0,0,1,356.06,120a40.39,40.39,0,0,1-23.29,22.36,47.32,47.32,0,0,1-16.9,3,44.79,44.79,0,0,1-21.73-5.23A50.6,50.6,0,0,1,277.76,126a66.53,66.53,0,0,1-10.39-20.62,83.06,83.06,0,0,1-3.66-24.86q0-19.29,7.78-34.33a74,74,0,0,1,21.26-25.27A97.32,97.32,0,0,1,324.4,5.34,138.19,138.19,0,0,1,363.5,0q5.92,0,12.77.46t14.18,1.69q7.32,1.22,14.69,3.19a99,99,0,0,1,14.23,5A116,116,0,0,1,447,2.27,174.06,174.06,0,0,1,474.55,0q6,0,12.67.46t13.47,1.63A135,135,0,0,1,514.4,5.17,97.65,97.65,0,0,1,527.76,10q8-2,14.93-3.19t13.42-1.92c4.33-.47,8.67-.77,13-.93s8.83-.23,13.47-.23h82.83V31.48Zm-298.91,71.8a13.87,13.87,0,0,0-4-10.34,14.33,14.33,0,0,0-10.52-4,17.4,17.4,0,0,0-6.27,1.1,17.62,17.62,0,0,0-5.17,3,13.68,13.68,0,0,0-3.54,4.59,13.44,13.44,0,0,0-1.28,5.92,13.18,13.18,0,0,0,1.28,5.81,15.91,15.91,0,0,0,3.42,4.71,15.08,15.08,0,0,0,5.06,3.13,17.07,17.07,0,0,0,6.15,1.11,15.68,15.68,0,0,0,6.05-1.16,14,14,0,0,0,4.7-3.14,14.45,14.45,0,0,0,3-4.76A16.21,16.21,0,0,0,329.57,103.28Zm88.06-64.94a41.56,41.56,0,0,0-8.19,9.46,60.32,60.32,0,0,0-5.63,11.39,68.7,68.7,0,0,0-3.31,12.43,74.23,74.23,0,0,0-1.11,12.6,64,64,0,0,0,1.28,13,41.94,41.94,0,0,0,3.72,10.87,21.58,21.58,0,0,0,6,7.43,13.46,13.46,0,0,0,8.36,2.73,13,13,0,0,0,8-2.55,20.69,20.69,0,0,0,5.75-6.86,36.09,36.09,0,0,0,3.49-10,62.14,62.14,0,0,0,1.16-12.25,77.5,77.5,0,0,0-1.22-13.42,73.56,73.56,0,0,0-3.66-13.3,62.4,62.4,0,0,0-6.1-12A41.21,41.21,0,0,0,417.63,38.34Zm107.69-.7a55.59,55.59,0,0,0-7.43,10.45,74.16,74.16,0,0,0-8.31,24.17,78.22,78.22,0,0,0-1,12.2,61,61,0,0,0,1.34,13.06,42.94,42.94,0,0,0,3.77,10.75,21.39,21.39,0,0,0,6,7.32,12.87,12.87,0,0,0,7.95,2.67,12.37,12.37,0,0,0,7.79-2.61,20.66,20.66,0,0,0,5.63-7.09,40.19,40.19,0,0,0,3.43-10.4,65.46,65.46,0,0,0,1.16-12.54,79.28,79.28,0,0,0-1.16-13.3,68,68,0,0,0-3.66-13.19,58,58,0,0,0-6.33-11.91A42.59,42.59,0,0,0,525.32,37.64Z"/><path class="cls-1" d="M879.29,192.38V142.77H791.47V118.14A66.27,66.27,0,0,0,804,96.94a68.81,68.81,0,0,0,4.3-23.75A56.67,56.67,0,0,0,805.7,56a39.07,39.07,0,0,0-22.6-24.68q-8.72-3.78-20.91-3.78a55,55,0,0,0-18.88,2.91,49.24,49.24,0,0,0-13.65,7.37,41.41,41.41,0,0,0-9.23,9.94,58.45,58.45,0,0,0-5.52,10.51,51,51,0,0,0-2.73,9.06,36.17,36.17,0,0,0-.76,5.75l.7.12a47.52,47.52,0,0,1,11.74-7,38.43,38.43,0,0,1,15.45-3,39.71,39.71,0,0,1,14.17,2.55A34.11,34.11,0,0,1,773.4,85.27a43,43,0,0,1,3,16.49A45.56,45.56,0,0,1,772.88,120a40.39,40.39,0,0,1-23.29,22.36,47.66,47.66,0,0,1-17,3A45.07,45.07,0,0,1,711,140.16,49.69,49.69,0,0,1,694.58,126a66.88,66.88,0,0,1-10.4-21,88.36,88.36,0,0,1-3.66-25.85q0-18.58,6.45-33.28A72.34,72.34,0,0,1,704.69,21,77.33,77.33,0,0,1,731.23,5.4a98.46,98.46,0,0,1,33-5.4q17.9,0,31.89,5.29a68.91,68.91,0,0,1,23.7,14.58A62,62,0,0,1,834.62,41.7a71.79,71.79,0,0,1,5.06,27.07,91.61,91.61,0,0,1-3,22.6A108.38,108.38,0,0,1,827.48,115h51.81V3.72H908.8V192.38Zm-132.9-89.1a13.84,13.84,0,0,0-4-10.34,14.29,14.29,0,0,0-10.51-4,17.36,17.36,0,0,0-6.27,1.1,17.62,17.62,0,0,0-5.17,3,13.84,13.84,0,0,0-3.55,4.59,13.58,13.58,0,0,0-1.27,5.92,13.31,13.31,0,0,0,1.27,5.81,16.12,16.12,0,0,0,3.43,4.71,15,15,0,0,0,5.06,3.13,17,17,0,0,0,6.15,1.11,15.62,15.62,0,0,0,6-1.16,14,14,0,0,0,4.71-3.14,14.45,14.45,0,0,0,3-4.76A16.41,16.41,0,0,0,746.39,103.28Z"/></g></g></svg>