<svg xmlns="http://www.w3.org/2000/svg" viewBox="0 0 740.5 194.58"><defs><style>.cls-1{fill:#d3ad62;}</style></defs><g id="Layer_2" data-name="Layer 2"><g id="main"><path class="cls-1" d="M103.59,166.94a117.84,117.84,0,0,0,26.7-2.65,69.81,69.81,0,0,0,18.46-6.8q7.25-4.16,10.73-9.12t3.48-9.51a11.81,11.81,0,0,0-1.83-6.58,27.88,27.88,0,0,0-5.69-6H100.05V101.38h34.39l.22-.44a31.88,31.88,0,0,1-3.93-5.42,29.82,29.82,0,0,1-2.32-5.14,24.76,24.76,0,0,1-1.11-5,46.4,46.4,0,0,1-.27-5,23.14,23.14,0,0,1,2.54-10.5,27.84,27.84,0,0,1,7.3-9,38,38,0,0,1,11.33-6.3A43.28,43.28,0,0,1,163,52.18q10.28,0,17.36,3.43A37.14,37.14,0,0,1,191.87,64a31.91,31.91,0,0,1,6.47,10.56,30.13,30.13,0,0,1,2,9.89,38.07,38.07,0,0,1-1.27,10.18,34.56,34.56,0,0,1-3.54,8.34,32.64,32.64,0,0,1-5.48,6.91,50.53,50.53,0,0,1-7.18,5.75q6.63,6.42,9,12.66a36.6,36.6,0,0,1,2.38,13.1,32.9,32.9,0,0,1-2.49,12.22,45.35,45.35,0,0,1-7.41,12.16,62.66,62.66,0,0,1-12.44,11.16,83,83,0,0,1-17.57,9.18,121,121,0,0,1-22.78,6.19,159.91,159.91,0,0,1-28,2.27,166.92,166.92,0,0,1-42.18-5q-19.06-5-32.72-14.65A67.54,67.54,0,0,1,7.52,151Q0,136.65,0,117.85A75,75,0,0,1,4.37,91.93a66.21,66.21,0,0,1,12-20.84,55.6,55.6,0,0,1,18-13.88,51.15,51.15,0,0,1,22.56-5,34.46,34.46,0,0,1,14.42,3,36.77,36.77,0,0,1,11.39,8,35.54,35.54,0,0,1,7.46,11.55,36.75,36.75,0,0,1,2.66,13.88,36.18,36.18,0,0,1-3,15.09A34.5,34.5,0,0,1,81.7,115a36.28,36.28,0,0,1-11.61,7.13,37.81,37.81,0,0,1-13.6,2.49A30.51,30.51,0,0,1,41,120.34a40.25,40.25,0,0,1-13.1-12.88l-.33.11c-.08.81-.11,1.38-.11,1.71v1A57,57,0,0,0,30.85,131a45.88,45.88,0,0,0,9.28,15.09,51,51,0,0,0,13.54,10.28,82.73,82.73,0,0,0,16.15,6.41A99.3,99.3,0,0,0,87,166.05,161.91,161.91,0,0,0,103.59,166.94ZM56.27,98.84a10.71,10.71,0,0,0,3.87-.72,11.54,11.54,0,0,0,3.43-2.05,9.9,9.9,0,0,0,2.49-3.31A10.62,10.62,0,0,0,67,88.22q0-5.75-3.49-8.56a13.51,13.51,0,0,0-8.79-2.82,13.81,13.81,0,0,0-4.91,1,13.52,13.52,0,0,0-4.59,2.88c-.08.66-.15,1.34-.22,2A20.19,20.19,0,0,0,44.89,85a16.78,16.78,0,0,0,1,6.35,13,13,0,0,0,2.65,4.26,9.75,9.75,0,0,0,3.65,2.43A11.25,11.25,0,0,0,56.27,98.84Zm106.36-1.55A15.93,15.93,0,0,0,166.77,96a11.9,11.9,0,0,0,3.6-2.55,13.91,13.91,0,0,0,2.54-3.64,10.18,10.18,0,0,0,1-4.48,10.64,10.64,0,0,0-.6-3.43,9,9,0,0,0-1.88-3.15,11.09,11.09,0,0,0-3.1-2.32,9.16,9.16,0,0,0-4.26-.94,9.35,9.35,0,0,0-7.29,2.93,10,10,0,0,0-2.66,6.91,10.81,10.81,0,0,0,2,6.41A21.07,21.07,0,0,0,162.63,97.29Z"/><path class="cls-1" d="M342.39,77.5H226.86V52.18H342.39Zm-17,92.65a54.32,54.32,0,0,1-8.52,10,55,55,0,0,1-10.61,7.68,54.07,54.07,0,0,1-12.27,5,51.32,51.32,0,0,1-13.49,1.77,51.87,51.87,0,0,1-21-4.26,53.52,53.52,0,0,1-17-11.61,55.12,55.12,0,0,1-11.44-17.19,54.9,54.9,0,0,1,0-42.12,55.12,55.12,0,0,1,11.44-17.19,53.85,53.85,0,0,1,17-11.61,51.87,51.87,0,0,1,21-4.26,63.54,63.54,0,0,1,7.85.5,52.78,52.78,0,0,1,7.85,1.6l.44-.55a36.66,36.66,0,0,0-10.56-8.12,89.65,89.65,0,0,0-15.31-6.47,150.09,150.09,0,0,0-18.08-4.59,146.59,146.59,0,0,0-18.84-2.38V61.58H291a69.4,69.4,0,0,1,13.88,7.74,75.23,75.23,0,0,1,11.22,10,74.22,74.22,0,0,1,8.73,11.55,91.16,91.16,0,0,1,6.41,12.44,55,55,0,0,1,17.36-12.38,53.82,53.82,0,0,1,42.62-.28,53.85,53.85,0,0,1,17,11.61,55.12,55.12,0,0,1,11.44,17.19,54.9,54.9,0,0,1,0,42.12,55.12,55.12,0,0,1-11.44,17.19,53.52,53.52,0,0,1-17,11.61,53.45,53.45,0,0,1-34.55,2.49,54.19,54.19,0,0,1-22.83-12.66A55.13,55.13,0,0,1,325.37,170.15Zm-43.56-60.37a28.51,28.51,0,0,0-11.5,2.32,29.06,29.06,0,0,0-15.42,15.7,29.6,29.6,0,0,0-2.27,11.61,28.56,28.56,0,0,0,2.27,11.39,29.53,29.53,0,0,0,6.19,9.28,29.18,29.18,0,0,0,9.23,6.31,28.51,28.51,0,0,0,11.5,2.32,28.18,28.18,0,0,0,11.38-2.32,29.18,29.18,0,0,0,9.23-6.31,29.73,29.73,0,0,0,6.2-9.28,28.73,28.73,0,0,0,2.26-11.39,29.78,29.78,0,0,0-2.26-11.61,29.12,29.12,0,0,0-15.43-15.7A28.18,28.18,0,0,0,281.81,109.78ZM430.28,77.5H314.75V52.18H430.28Zm-61.36,32.28a28.18,28.18,0,0,0-11.38,2.32,29.12,29.12,0,0,0-15.43,15.7,29.78,29.78,0,0,0-2.26,11.61,28.73,28.73,0,0,0,2.26,11.39,29.56,29.56,0,0,0,6.2,9.28,29.18,29.18,0,0,0,9.23,6.31,28.18,28.18,0,0,0,11.38,2.32,28.65,28.65,0,0,0,11.45-2.32,29.07,29.07,0,0,0,9.28-6.31,29.53,29.53,0,0,0,6.19-9.28,28.74,28.74,0,0,0,2.27-11.39,29.78,29.78,0,0,0-2.27-11.61,28.93,28.93,0,0,0-15.47-15.7A28.65,28.65,0,0,0,368.92,109.78ZM425.09,77.5V52.18H485a89.22,89.22,0,0,1,18.52,2,82.46,82.46,0,0,1,17.91,6,76.65,76.65,0,0,1,16,10.17,66,66,0,0,1,13,14.43,70.24,70.24,0,0,1,8.68,18.74,80,80,0,0,1,3.15,23.16,69.68,69.68,0,0,1-18.69,47.87,64.18,64.18,0,0,1-20.67,14.65,62.75,62.75,0,0,1-26,5.36,60.73,60.73,0,0,1-23.05-4.15,53.09,53.09,0,0,1-17.42-11.16,48.51,48.51,0,0,1-11-16.2,49.69,49.69,0,0,1-3.81-19.24,45.88,45.88,0,0,1,3.21-16.91,45.2,45.2,0,0,1,8.9-14.37,43.27,43.27,0,0,1,13.7-10,41,41,0,0,1,17.64-3.76,31.28,31.28,0,0,1,12.82,2.54,32.81,32.81,0,0,1,9.84,6.58,28.18,28.18,0,0,1,6.25,9.12,24.06,24.06,0,0,1,2,10.06,25.48,25.48,0,0,1-2.21,10.67,21.21,21.21,0,0,1-5.19,7,19.49,19.49,0,0,1-6.64,3.81,20.57,20.57,0,0,1-6.41,1.16,20.12,20.12,0,0,1-6.74-1.16,18.93,18.93,0,0,1-6-3.37,16.61,16.61,0,0,1-4.26-5.42,16.29,16.29,0,0,1-1.6-7.4,20.2,20.2,0,0,1,1.32-6.86,15.14,15.14,0,0,1,4.87-6.52l-.33-.55a14.67,14.67,0,0,0-4.76,1.93,23.62,23.62,0,0,0-5.3,4.31,24.7,24.7,0,0,0-4.32,6.47,19.74,19.74,0,0,0-1.76,8.51,26.22,26.22,0,0,0,2.15,10.67,25.37,25.37,0,0,0,6,8.51,27.86,27.86,0,0,0,9.28,5.64,33.74,33.74,0,0,0,12,2.05,35.13,35.13,0,0,0,13.77-2.82,36.83,36.83,0,0,0,11.88-8,38.43,38.43,0,0,0,8.29-12.6,42.53,42.53,0,0,0,3.1-16.58,55.35,55.35,0,0,0-3.1-18.47,46.39,46.39,0,0,0-9.12-15.64,44.21,44.21,0,0,0-15-10.89,49.64,49.64,0,0,0-20.73-4.09Z"/><path class="cls-1" d="M664.66,194.58a83.13,83.13,0,0,1-37.2-8.79,72.86,72.86,0,0,1-15.53-10.5,67.66,67.66,0,0,1-20.24-31.79,71.69,71.69,0,0,1-2.87-20.56,67.59,67.59,0,0,1,23.11-51.41A75.84,75.84,0,0,1,627.4,61a79.34,79.34,0,0,1,17.86-6.58,83.82,83.82,0,0,1,38.75,0A79,79,0,0,1,701.92,61a76.18,76.18,0,0,1,15.48,10.5,67.62,67.62,0,0,1,23.1,51.41,71.56,71.56,0,0,1-2.87,20.62,68,68,0,0,1-20.23,31.73,73.18,73.18,0,0,1-15.54,10.5,83.13,83.13,0,0,1-37.2,8.79ZM655.59,77.5H588.82V52.18h66.77Zm9.07.44a52.35,52.35,0,0,0-18.74,3.26,44.69,44.69,0,0,0-14.81,9.12,41.57,41.57,0,0,0-9.79,14.1,45.87,45.87,0,0,0-3.54,18.3,47.44,47.44,0,0,0,3.54,18.51,43.56,43.56,0,0,0,24.6,24.16,52.74,52.74,0,0,0,37.42,0A43.43,43.43,0,0,0,708,141.23a47.44,47.44,0,0,0,3.54-18.51,45.87,45.87,0,0,0-3.54-18.3,41.57,41.57,0,0,0-9.79-14.1,44.56,44.56,0,0,0-14.87-9.12A52.42,52.42,0,0,0,664.66,77.94ZM717.06,0a52.59,52.59,0,0,1,11.5,9.07A46.46,46.46,0,0,1,735.75,19a38.38,38.38,0,0,1,3.7,10,45.53,45.53,0,0,1,1,9.39,43.42,43.42,0,0,1-2.21,13.21,36.62,36.62,0,0,1-7.08,12.66,37.69,37.69,0,0,1-12.6,9.51q-7.74,3.77-18.68,3.76H643.32V52.18H695a19.43,19.43,0,0,0,7.8-1.43A16.05,16.05,0,0,0,708.11,47a14.61,14.61,0,0,0,3.09-5,16,16,0,0,0,.11-10.83,18.11,18.11,0,0,0-2.37-4.48,23.88,23.88,0,0,0-3.43-3.76c-1.29-1.14-2.64-2.23-4-3.26Z"/></g></g></svg>