<svg xmlns="http://www.w3.org/2000/svg" viewBox="0 0 45.61 45.61">
    <defs>
        <style>.cls-1{fill:#f2d8a0;}</style>
    </defs>
    <g id="Layer_2" data-name="Layer 2">
        <g id="main">
            <path class="cls-1"
                d="M32.94,45.61H7.6A7.61,7.61,0,0,1,0,38V12.67a7.6,7.6,0,0,1,7.6-7.6H17.74a2.53,2.53,0,1,1,0,5.06H7.6a2.54,2.54,0,0,0-2.53,2.54V38A2.53,2.53,0,0,0,7.6,40.54H32.94a2.56,2.56,0,0,0,1.79-.74,2.53,2.53,0,0,0,.74-1.8V27.87a2.54,2.54,0,0,1,5.07,0V38a7.61,7.61,0,0,1-7.6,7.61ZM17.74,30.4a2.53,2.53,0,0,1-1.8-4.32l21-21H27.87a2.54,2.54,0,0,1,0-5.07h15.2a2.52,2.52,0,0,1,1.77.72h0a2.55,2.55,0,0,1,.53.79,2.64,2.64,0,0,1,.2,1V17.74a2.54,2.54,0,0,1-5.07,0V8.65l-21,21a2.52,2.52,0,0,1-1.79.74Z" />
        </g>
    </g>
</svg>