<svg xmlns="http://www.w3.org/2000/svg" viewBox="0 0 581.99 1252.09"><defs><style>.cls-1{fill:#d3ad62;stroke:#6d522c;stroke-miterlimit:10;stroke-width:5px;}</style></defs><g id="Layer_2" data-name="Layer 2"><g id="main"><path class="cls-1" d="M132.36,2.5H484.93a14.46,14.46,0,0,1,13.58,19.44l-188,512.62A14.46,14.46,0,0,0,324.07,554H565a14.45,14.45,0,0,1,12.69,21.39L213.33,1242c-7.82,14.3-29.64,6.75-27-9.32l79.4-473.8A14.46,14.46,0,0,0,251.52,742H17A14.46,14.46,0,0,1,2.69,725.26L118.09,14.64A14.46,14.46,0,0,1,132.36,2.5Z"/></g></g></svg>