<svg xmlns="http://www.w3.org/2000/svg" viewBox="0 0 34.4 34.4"><defs><style>.cls-1{fill:#ddd4c7;}</style></defs><g id="Layer_2" data-name="Layer 2"><g id="main"><path class="cls-1" d="M4.17,0H30.23l.16.05a4.67,4.67,0,0,1,4,4.73V29.64a4.68,4.68,0,0,1-4.77,4.76H4.75A4.68,4.68,0,0,1,.17,31c-.07-.24-.11-.48-.17-.72V4.17c0-.09.05-.17.07-.26A4.53,4.53,0,0,1,2.67.47,10.88,10.88,0,0,1,4.17,0ZM18.32,15.2c0-.3,0-.59,0-.89a.67.67,0,0,0-.77-.76h-3c-.55,0-.79.24-.79.78V27.15c0,.55.25.8.81.8H17.3c.83,0,1-.17,1-1,0-2.13,0-4.27,0-6.41A4,4,0,0,1,19,18.25a2.2,2.2,0,0,1,2.33-1A1.88,1.88,0,0,1,23,18.75a9.65,9.65,0,0,1,.26,2.15c0,2.07,0,4.14,0,6.21,0,.61.22.83.83.83h3c.6,0,.84-.23.84-.83,0-2.35,0-4.7,0-7a16,16,0,0,0-.33-2.93,4.3,4.3,0,0,0-3.19-3.57,7.06,7.06,0,0,0-1.65-.23A4.9,4.9,0,0,0,18.32,15.2Zm-6.59,5.54V14.43c0-.62-.26-.88-.88-.89H8.07c-.63,0-.88.26-.88.88V27.08c0,.61.26.87.88.87h2.66c.77,0,1-.22,1-1ZM12.38,9.4a2.93,2.93,0,1,0-3,2.91A2.92,2.92,0,0,0,12.38,9.4Z"/></g></g></svg>