<svg xmlns="http://www.w3.org/2000/svg" viewBox="0 0 48.56 34.56"><defs><style>.cls-1{fill:#ddd4c7;}</style></defs><g id="Layer_2" data-name="Layer 2"><g id="main"><path class="cls-1" d="M42.42,0H5.65C2.08,0,0,2.05,0,6.06V28.48c0,4,2.09,6.08,6.12,6.08H42.91c3.57,0,5.65-2.07,5.65-6.08V6.06C48.56,2.05,46.47,0,42.42,0Zm3.47,28.48A3.07,3.07,0,0,1,42.5,31.9H6.06a3.08,3.08,0,0,1-3.4-3.43V6.06a3.07,3.07,0,0,1,3.4-3.4H42.5a3.07,3.07,0,0,1,3.39,3.41Z"/><path class="cls-1" d="M24.26,22.39a5.25,5.25,0,0,0,3.58-1.49L47,3.67,45.16,1.84l-18.88,17a3,3,0,0,1-2,.88,3,3,0,0,1-2-.88l-18.9-17L1.54,3.67,20.71,20.9A5.18,5.18,0,0,0,24.26,22.39Z"/><polygon class="cls-1" points="3.68 32.2 18.33 17.55 16.51 15.74 1.86 30.36 3.68 32.2"/><polygon class="cls-1" points="44.9 32.21 46.7 30.37 32.05 15.74 30.23 17.55 44.9 32.21"/></g></g></svg>