<svg xmlns="http://www.w3.org/2000/svg" xmlns:xlink="http://www.w3.org/1999/xlink" viewBox="0 0 235.29 235.29"><defs><style>.cls-1{stroke:#887ba8;stroke-miterlimit:10;stroke-width:4.5px;fill:url(#linear-gradient);}.cls-2{fill:#cca5f9;stroke:#5f4aa0;stroke-linecap:round;stroke-linejoin:round;}.cls-3{fill:#5f4aa0;}</style><linearGradient id="linear-gradient" x1="117.65" y1="233.04" x2="117.65" y2="2.25" gradientTransform="translate(117.65 284.02) rotate(-135)" gradientUnits="userSpaceOnUse"><stop offset="0" stop-color="#bb8be8" stop-opacity="0.3"/><stop offset="1" stop-color="#8670a0" stop-opacity="0.1"/></linearGradient></defs><g id="Layer_2" data-name="Layer 2"><g id="main"><rect class="cls-1" x="24.05" y="24.05" width="187.19" height="187.19" rx="40.95" transform="translate(284.02 117.65) rotate(135)"/><path class="cls-2" d="M98.22,174.61q0-.68,0-1.35a28.78,28.78,0,0,0-.69-6.34,28.18,28.18,0,0,0-1.42-4.57c-.22-.31-.42-.63-.62-1A16.71,16.71,0,0,1,94,158.16a18.31,18.31,0,0,1-.59-2.08c0-.13-.06-.27-.08-.41a55.44,55.44,0,0,1-5.64.34c-.18,0-.6-.73-.78-.73-1.77,0-3.27.65-5,.49l-1.06-.11-.82-.1c-.14.5-.29,1-.45,1.49a28.46,28.46,0,0,1-1.72,4v0c-.2.38-.41.76-.62,1.13h0a28.23,28.23,0,0,0-1.8,4.3l-.12.38c-.15.49-.29,1-.42,1.48a29.6,29.6,0,0,0-.73,4.26c0-.15.64-.5.76-.59s.55-.39.84-.57a20.13,20.13,0,0,1,9-2.94,16.86,16.86,0,0,1,5.47.53,14.18,14.18,0,0,1,5.19,2.34,9.88,9.88,0,0,1,2.33,2.41S98.19,174.62,98.22,174.61Z"/><path class="cls-2" d="M80.07,155.56l0,0v0Z"/><path class="cls-2" d="M88.3,158.49a3.67,3.67,0,0,0,1.89-1.35,3.6,3.6,0,0,0,.56-1,1.79,1.79,0,0,0,.25.23,3.37,3.37,0,0,0,.81.54,3.79,3.79,0,0,0,1.52-1.2h0l0-.14h0v-.1a.13.13,0,0,0,0-.06s0,0,0-.06v0h0v0h0v0a.69.69,0,0,0,0-.13s0-.07,0-.1v0h0v0h0v-.08a0,0,0,0,1,0,0h0v-.13l0-.18v0s0-.1,0-.16l0-.26c0-.14,0-.28,0-.42h0a.49.49,0,0,0,0-.12,1.48,1.48,0,0,0,0-.21v0h0v0a.15.15,0,0,0,0-.07v-.25a.15.15,0,0,1,0-.07v-.5c0-.63,0-1.25.09-1.87,0-.38.09-.77.16-1.14a1.87,1.87,0,0,1,0-.25A17.54,17.54,0,0,1,95,144.13h0L95,144a3.82,3.82,0,0,1,.21-.46h0l.45-1,.27-.63q.93-2.19,1.7-4.47c.17-.5.34-1,.49-1.5a66.58,66.58,0,0,0,2.62-12.32c.06-.54.12-1.09.17-1.64,0-.27,0-.55.07-.83.14-1.78.22-3.59.22-5.42,0-.17,0-.34,0-.5a1.36,1.36,0,0,0,0-.2h0c0-.2,0-.41,0-.61,0-2-.16-4-.37-6l-.06-.53,0,0q0-3,.26-5.89h0c0-.25.07-.49.11-.74v0c.09-.92.2-1.85.33-2.77h0l0-.3c.16-1.75.26-3.52.28-5.31,0-.34,0-.68,0-1a68,68,0,0,0-.56-8.73c0-.11,0-.23,0-.34a15.37,15.37,0,0,1-11.62,5.41,15.82,15.82,0,0,1-14.38-9.84,4.49,4.49,0,0,1-.5,1l-.49,1c-.32.69-.62,1.39-.91,2.09-.57,1.42-1.08,2.87-1.52,4.34s-.72,2.67-1,4a48.36,48.36,0,0,0-1,9.53c0,.6,0,1.2,0,1.79.05,1.42.16,2.82.34,4.2a40.67,40.67,0,0,0,1.12,5.92,54.44,54.44,0,0,0,1.76,5.47l.27.66q.75,1.83,1.65,3.57a1.21,1.21,0,0,0,0,.18,66.31,66.31,0,0,1,5.32,17.72q.08.41.12.81c.08.56.16,1.13.22,1.7.05.38.09.75.12,1.13v0h0c.13,1.31.23,2.63.28,4,0,.45,0,.91,0,1.37h0L81,149.91l0,.19a2.11,2.11,0,0,1,0,.25c0,.19,0,.39,0,.58a29,29,0,0,1-.87,4.6l0,0a3.86,3.86,0,0,0,1.54,1.77,2.75,2.75,0,0,0,.38.2,3.86,3.86,0,0,0,1.75-1.62c0,.09.06.18.09.27a4.1,4.1,0,0,0,.92,1.41A3.8,3.8,0,0,0,86.58,156a1.09,1.09,0,0,0,.08-.15l0,.15a4.14,4.14,0,0,0,.49,1.27A3.83,3.83,0,0,0,88.3,158.49Z"/><polygon class="cls-2" points="93.33 155.67 93.34 155.67 93.34 155.67 93.33 155.67"/><polygon class="cls-2" points="93.33 155.67 93.34 155.67 93.34 155.67 93.33 155.67"/><path class="cls-2" d="M97.15,67.09h0Z"/><path class="cls-2" d="M103.29,148.54h0a3.59,3.59,0,0,0,.47,0h.28a3.55,3.55,0,0,0,2-.84h0a1.18,1.18,0,0,0,.06-1.68c-.47-.49-.94-1-1.39-1.48-1-1.09-2-2.23-2.88-3.39q-.67-.85-1.32-1.74l-.76-1c-.57-.82-1.12-1.64-1.66-2.48-.15.5-.32,1-.49,1.5q-.76,2.28-1.7,4.47l-.27.63-.45,1h0L95,144h0l-.06.16h0a4.38,4.38,0,0,0-.15,2.15,2.62,2.62,0,0,0,1.88,2.05h0a14.91,14.91,0,0,0,3.74.47h.06A15,15,0,0,0,103.29,148.54Z"/><path class="cls-2" d="M93.34,155.67ZM80,155.56v0l0,0Z"/><path class="cls-2" d="M77.89,147.23a3.43,3.43,0,0,1-.13-.8,2.62,2.62,0,0,1,0-.28,3.94,3.94,0,0,1,2.81-3.87h.07c-.06-.57-.14-1.14-.22-1.7q0-.4-.12-.81A66.31,66.31,0,0,0,75,122h0a1.21,1.21,0,0,1,0-.18q-.9-1.74-1.65-3.57l-.27-.66c-.42-1.08-.8-2.18-1.15-3.3l-.36-1.21a47.33,47.33,0,0,1-1.37-6.88q-1.65,1.38-3.19,2.89a1.36,1.36,0,0,0-.12.12,60.32,60.32,0,0,0-5,5.49,4.48,4.48,0,0,0,1,6.51l0,0h0a8,8,0,0,0,.71.38h0c.31.17.61.36.9.55h0a16.35,16.35,0,0,1,4.37,4.29,17.12,17.12,0,0,1,2.58,5.65h0a17.75,17.75,0,0,1,.44,2.33,15,15,0,0,0,.42,2.2,28.21,28.21,0,0,0,3.38,7.63c.43.69.9,1.35,1.39,2C77.39,146.63,77.63,146.93,77.89,147.23Z"/><path class="cls-2" d="M101.28,115.8a1.78,1.78,0,0,0,1.72,0,15.26,15.26,0,0,1,1.63-.78c.46-.18.93-.35,1.41-.49h0a2.06,2.06,0,0,0,.68-3.53l-.35-.29a26,26,0,0,0-3.57-2.41,24.25,24.25,0,0,0-4.56-2h0v.51h0c.18,1.71.3,3.45.36,5.2a2.06,2.06,0,0,0,.51,1.33l.1.12.3.34h0c.35.43.68.87,1,1.33a2,2,0,0,0,.61.59Z"/><path class="cls-2" d="M89.59,88.11a15.35,15.35,0,0,0,11.54-5.33.23.23,0,0,0,.06-.2c-.19-1.44-.44-2.87-.72-4.29a66.12,66.12,0,0,0-3.32-11.2h0c-.07-.16-.13-.33-.2-.49-.28-.69-.57-1.38-.87-2S95.38,63,95,62.25v0a2.6,2.6,0,0,0-3.68-1.18c-.88.53-1.75,1.09-2.59,1.69a.51.51,0,0,0-.09.68A12.74,12.74,0,0,0,92.05,67c.24.16,0,.48-.3.38a11.2,11.2,0,0,1-3.69-2.6,1.67,1.67,0,0,0-2.15.14c-.56.48-1.12,1-1.66,1.47-.82.77-1.61,1.57-2.38,2.4a45,45,0,0,0-6.35,8.9l-.26.49a.26.26,0,0,0,0,.21A15.83,15.83,0,0,0,89.59,88.11Z"/><path class="cls-2" d="M97.15,67.09h0Z"/><path class="cls-2" d="M101.83,94.69a3.35,3.35,0,0,0,.49-.43h0a3.7,3.7,0,0,0,.8-1.21,4.09,4.09,0,0,0,.16-.42c.24-.29.49-.58.76-.86a2.68,2.68,0,0,0,.75-2,17.49,17.49,0,0,0-.83-4.19,17.27,17.27,0,0,0-3.26-5.85c-.29,1.07-.55,2.16-.76,3.26s-.4,2.2-.53,3.33c0,.38-.09.76-.13,1.14l0,.18c-.15,1.52-.22,3.06-.22,4.63,0,.67,0,1.33,0,2,0,.17,0,.34,0,.51a.65.65,0,0,0,.63.62h0A3.57,3.57,0,0,0,101.83,94.69Z"/><ellipse class="cls-3" cx="83.75" cy="73.38" rx="1.42" ry="1.52"/><path class="cls-2" d="M137.07,174.61q0-.68,0-1.35a29,29,0,0,1,2.11-10.91c.22-.31.43-.63.62-1a17.36,17.36,0,0,0,1.52-3.23,18.28,18.28,0,0,0,.58-2.08c0-.13.06-.27.08-.41a55.44,55.44,0,0,0,5.64.34c.18,0,.6-.73.79-.73,1.76,0,3.27.65,5,.49l1.06-.11.82-.1c.14.5.29,1,.45,1.49a29.66,29.66,0,0,0,1.72,4s0,0,0,0c.2.38.41.76.63,1.13h0a27.26,27.26,0,0,1,1.8,4.3l.12.38c.15.49.29,1,.42,1.48a29.6,29.6,0,0,1,.73,4.26c0-.15-.64-.5-.76-.59-.27-.2-.55-.39-.83-.57a20.21,20.21,0,0,0-9-2.94,16.9,16.9,0,0,0-5.48.53,14.26,14.26,0,0,0-5.19,2.34,9.66,9.66,0,0,0-2.32,2.41S137.1,174.62,137.07,174.61Z"/><path class="cls-2" d="M155.23,155.56v0Z"/><path class="cls-2" d="M147,158.49a3.74,3.74,0,0,1-1.9-1.35,4.16,4.16,0,0,1-.56-1,2.55,2.55,0,0,1-.24.23,3.63,3.63,0,0,1-.82.54,3.79,3.79,0,0,1-1.52-1.2h0a.59.59,0,0,1,0-.14h0v-.1s0,0,0-.06,0,0,0-.06v0h0v0h0v0s0-.08,0-.13,0-.07,0-.1v0h0v0h0v0a.09.09,0,0,1,0-.05v0h0v-.13l0-.18v0s0-.1,0-.16a2.28,2.28,0,0,0,0-.26c0-.14,0-.28,0-.42h0a.49.49,0,0,1,0-.12c0-.07,0-.14,0-.21v0h0v0a.2.2,0,0,0,0-.07v-.17s0,0,0,0v-.48a.57.57,0,0,0,0-.13c0-.63,0-1.25-.1-1.87,0-.38-.09-.77-.16-1.14a1.87,1.87,0,0,0,0-.25,17.09,17.09,0,0,0-.42-1.78,16.32,16.32,0,0,0-1.23-3.09h0a.58.58,0,0,0-.06-.17,3.82,3.82,0,0,0-.21-.46h0c-.16-.34-.31-.67-.45-1s-.19-.42-.28-.63c-.62-1.46-1.18-2.95-1.7-4.47-.17-.5-.33-1-.49-1.5a66.58,66.58,0,0,1-2.62-12.32c-.06-.54-.12-1.09-.17-1.64,0-.27,0-.55-.07-.83-.14-1.78-.21-3.59-.21-5.42v-.5c0-.07,0-.13,0-.2h0c0-.2,0-.41,0-.61q.06-3,.37-6c0-.17,0-.35.07-.53l-.06,0q0-3-.26-5.89h0c0-.25-.07-.49-.1-.74v0c-.09-.92-.2-1.85-.33-2.77h0c0-.1,0-.2,0-.3-.17-1.75-.26-3.52-.29-5.31,0-.34,0-.68,0-1A68,68,0,0,1,134,83c0-.11,0-.23.05-.34a15.34,15.34,0,0,0,11.61,5.41,15.83,15.83,0,0,0,14.39-9.84c-.05.11.43.84.49,1,.17.34.33.68.49,1,.32.69.62,1.39.91,2.09a44.61,44.61,0,0,1,1.52,4.34c.39,1.33.73,2.67,1,4a48.36,48.36,0,0,1,.95,9.53c0,.6,0,1.2,0,1.79-.06,1.42-.17,2.82-.34,4.2a42.07,42.07,0,0,1-1.13,5.92,54.44,54.44,0,0,1-1.76,5.47l-.27.66c-.5,1.22-1,2.41-1.64,3.57a1.21,1.21,0,0,0,.05.18A66,66,0,0,0,155,139.76l-.12.81c-.08.56-.15,1.13-.22,1.7l-.12,1.13v0h0q-.19,2-.27,4c0,.45,0,.91,0,1.37h0c0,.38,0,.76.05,1.14l0,.19a2.11,2.11,0,0,0,0,.25l.06.58a27.88,27.88,0,0,0,.86,4.6v0a3.88,3.88,0,0,1-1.55,1.77,2.75,2.75,0,0,1-.38.2,3.79,3.79,0,0,1-1.74-1.62c0,.09-.06.18-.1.27a4,4,0,0,1-.92,1.41,3.8,3.8,0,0,1-1.83-1.58,1.09,1.09,0,0,1-.08-.15l0,.15a3.9,3.9,0,0,1-.49,1.27A3.8,3.8,0,0,1,147,158.49Z"/><polygon class="cls-2" points="141.96 155.67 141.96 155.67 141.96 155.67 141.96 155.67"/><polygon class="cls-2" points="141.96 155.67 141.96 155.67 141.96 155.67 141.96 155.67"/><path class="cls-2" d="M138.14,67.09h0Z"/><path class="cls-2" d="M132,148.54h0a3.87,3.87,0,0,1-.48,0h-.27a3.58,3.58,0,0,1-2-.84h0a1.18,1.18,0,0,1-.06-1.68c.47-.49.94-1,1.39-1.48,1-1.09,2-2.23,2.88-3.39q.67-.85,1.32-1.74l.76-1c.57-.82,1.12-1.64,1.66-2.48.16.5.32,1,.49,1.5.52,1.52,1.08,3,1.7,4.47.09.21.18.42.28.63s.29.67.45,1h0l.21.46h0a.75.75,0,0,1,.05.16h0a4,4,0,0,1,.22,1.35,4.25,4.25,0,0,1-.07.8,2.6,2.6,0,0,1-1.88,2.05h0a15,15,0,0,1-3.75.47h-.05A15.08,15.08,0,0,1,132,148.54Z"/><path class="cls-2" d="M142,155.67h0Zm13.29-.11v0Z"/><path class="cls-2" d="M157.41,147.23a5,5,0,0,0,.13-.8c0-.09,0-.19,0-.28a4,4,0,0,0-2.82-3.87h-.07c.07-.57.14-1.14.22-1.7l.12-.81A66,66,0,0,1,160.33,122h0a1.21,1.21,0,0,1-.05-.18c.59-1.16,1.14-2.35,1.64-3.57l.27-.66c.42-1.08.81-2.18,1.15-3.3.13-.4.25-.81.36-1.21a48.71,48.71,0,0,0,1.38-6.88q1.63,1.38,3.18,2.89a1.36,1.36,0,0,1,.12.12,60.32,60.32,0,0,1,5,5.49,4.49,4.49,0,0,1-.95,6.51l-.05,0h0c-.23.14-.47.26-.71.38h0c-.31.17-.61.36-.9.55h0a16.39,16.39,0,0,0-4.38,4.29,17.32,17.32,0,0,0-2.58,5.65h0a17.74,17.74,0,0,0-.43,2.33,15,15,0,0,1-.43,2.2,27.88,27.88,0,0,1-3.37,7.63c-.44.69-.9,1.35-1.39,2C157.91,146.63,157.66,146.93,157.41,147.23Z"/><path class="cls-2" d="M134,115.8a1.76,1.76,0,0,1-1.71,0,16.4,16.4,0,0,0-1.64-.78c-.46-.18-.93-.35-1.41-.49h0a2.06,2.06,0,0,1-.67-3.53l.35-.29a25.88,25.88,0,0,1,3.56-2.41,24.06,24.06,0,0,1,4.57-2h0c0,.17,0,.34,0,.51h0c-.18,1.71-.3,3.45-.35,5.2a2.12,2.12,0,0,1-.52,1.33l-.1.12c-.1.11-.2.22-.29.34h0a15.93,15.93,0,0,0-1,1.33,2,2,0,0,1-.6.59Z"/><path class="cls-2" d="M145.7,88.11a15.35,15.35,0,0,1-11.54-5.33.23.23,0,0,1-.06-.2q.3-2.16.72-4.29a66.12,66.12,0,0,1,3.32-11.2h0c.07-.16.13-.33.2-.49.28-.69.57-1.38.87-2s.7-1.54,1.07-2.29v0A2.61,2.61,0,0,1,144,61.05c.88.53,1.74,1.09,2.58,1.69a.5.5,0,0,1,.09.68A12.6,12.6,0,0,1,143.24,67c-.24.16,0,.48.3.38a11.1,11.1,0,0,0,3.69-2.6,1.67,1.67,0,0,1,2.15.14c.57.48,1.12,1,1.66,1.47.82.77,1.62,1.57,2.38,2.4a44.62,44.62,0,0,1,6.35,8.9c.09.16.18.32.26.49a.22.22,0,0,1,0,.21A15.81,15.81,0,0,1,145.7,88.11Z"/><path class="cls-2" d="M138.14,67.09h0Z"/><path class="cls-2" d="M133.46,94.69a3.35,3.35,0,0,1-.49-.43h0a3.87,3.87,0,0,1-.8-1.21,2.6,2.6,0,0,1-.15-.42c-.25-.29-.5-.58-.77-.86a2.71,2.71,0,0,1-.75-2,18,18,0,0,1,.83-4.19,17.27,17.27,0,0,1,3.26-5.85c.3,1.07.55,2.16.76,3.26s.4,2.2.54,3.33c0,.38.09.76.12,1.14l0,.18c.15,1.52.22,3.06.22,4.63,0,.67,0,1.33,0,2,0,.17,0,.34,0,.51a.65.65,0,0,1-.62.62h0A3.59,3.59,0,0,1,133.46,94.69Z"/><ellipse class="cls-3" cx="151.54" cy="73.38" rx="1.42" ry="1.52"/></g></g></svg>