<svg xmlns="http://www.w3.org/2000/svg" xmlns:xlink="http://www.w3.org/1999/xlink" viewBox="0 0 563.87 364.5"><defs><style>.cls-1{stroke:#887ba8;stroke-miterlimit:10;stroke-width:2px;fill:url(#linear-gradient);}.cls-2{fill:#cca5f9;stroke:#5f4aa0;stroke-linecap:round;stroke-linejoin:round;stroke-width:1.84px;}.cls-3{fill:#5f4aa0;}</style><linearGradient id="linear-gradient" x1="281.94" y1="363.5" x2="281.94" y2="1" gradientUnits="userSpaceOnUse"><stop offset="0" stop-color="#bb8be8" stop-opacity="0.3"/><stop offset="1" stop-color="#8670a0" stop-opacity="0.1"/></linearGradient></defs><g id="Layer_2" data-name="Layer 2"><g id="main"><path class="cls-1" d="M560.8,363.5H1V1H560.8a2.07,2.07,0,0,1,1.38,3.61L365.23,180.71a2.06,2.06,0,0,0,0,3.08l196.95,176.1A2.07,2.07,0,0,1,560.8,363.5Z"/><path class="cls-2" d="M159.48,287.14c0-.82.06-1.65.06-2.48A53.76,53.76,0,0,0,158.27,273a52.59,52.59,0,0,0-2.63-8.43c-.4-.57-.78-1.16-1.14-1.76a31.81,31.81,0,0,1-2.79-6,32.15,32.15,0,0,1-1.07-3.82c-.06-.25-.11-.51-.16-.76a101.67,101.67,0,0,1-10.38.62c-.33,0-1.11-1.33-1.44-1.33-3.25,0-6,1.18-9.21.89l-1.94-.2-1.51-.19c-.25.93-.53,1.84-.83,2.74a52.06,52.06,0,0,1-3.17,7.46l0,0c-.37.7-.75,1.4-1.15,2.08v0a50.84,50.84,0,0,0-3.31,7.92l-.23.71c-.27.9-.53,1.81-.76,2.72a53.14,53.14,0,0,0-1.35,7.83c0-.26,1.17-.91,1.4-1.08.5-.36,1-.71,1.54-1a37.12,37.12,0,0,1,16.59-5.41,31.15,31.15,0,0,1,10.08,1,26.23,26.23,0,0,1,9.55,4.31,18.27,18.27,0,0,1,4.29,4.44C158.67,285.84,159.43,287.16,159.48,287.14Z"/><path class="cls-2" d="M126.05,252.07a.11.11,0,0,1,0-.07l0,.06Z"/><path class="cls-2" d="M141.2,257.47a7,7,0,0,0,3.5-2.49,7.78,7.78,0,0,0,1-1.91l.45.42a7,7,0,0,0,1.5,1,6.86,6.86,0,0,0,2.81-2.2h0c0-.08,0-.17,0-.25v0s0,0,0-.07l0-.1a.36.36,0,0,0,0-.11s0-.08,0-.12v-.05h0v-.07a0,0,0,0,0,0,0v0c0-.07,0-.15,0-.23l0-.19v0h0l0-.06h0v-.06s0-.06,0-.09a.26.26,0,0,0,0-.07h0v0h0v-.05l0-.2,0-.33s0,0,0,0l0-.3c0-.16,0-.32-.05-.49l-.06-.78h0c0-.07,0-.14,0-.21s0-.26,0-.38v0s0,0,0-.06v-.19a.86.86,0,0,1,0-.16c0-.05,0-.1,0-.15V247a.57.57,0,0,0,0-.12v-.24c0-.14,0-.29,0-.44V246a32.41,32.41,0,0,1,.18-3.43c.07-.71.17-1.41.29-2.11,0-.15,0-.3.07-.45a31.9,31.9,0,0,1,3-9h0c0-.1.07-.2.11-.3a6,6,0,0,1,.39-.85v0c.28-.62.56-1.24.83-1.86.17-.39.34-.78.5-1.17,1.14-2.68,2.19-5.43,3.14-8.22.31-.92.61-1.84.9-2.77a121.57,121.57,0,0,0,4.82-22.67c.12-1,.22-2,.32-3,0-.51.09-1,.12-1.52q.4-4.93.4-10c0-.31,0-.62,0-.93l0-.36h0c0-.37,0-.75,0-1.11-.06-3.73-.3-7.42-.69-11.05,0-.33-.07-.65-.11-1l.11,0q0-5.5.47-10.86l-.08,0c.07-.45.14-.9.2-1.36v0c.17-1.71.37-3.41.61-5.1v0l.06-.55c.29-3.22.47-6.48.52-9.78,0-.63,0-1.26,0-1.9a127,127,0,0,0-1-16.07l-.09-.64a28.26,28.26,0,0,1-21.38,10c-11.75,0-21.87-7.42-26.5-18.11.09.19-.79,1.54-.9,1.78-.31.62-.61,1.25-.91,1.88-.59,1.26-1.15,2.54-1.67,3.84a82.29,82.29,0,0,0-2.8,8c-.73,2.44-1.34,4.92-1.85,7.42a89,89,0,0,0-1.74,17.54c0,1.1,0,2.21.06,3.3.1,2.61.3,5.19.62,7.73A77.45,77.45,0,0,0,110,172.15a100,100,0,0,0,3.25,10.06c.17.41.33.83.5,1.23q1.38,3.36,3,6.56l-.09.35A121.47,121.47,0,0,1,126.46,223c.08.49.15,1,.22,1.49.15,1,.28,2.08.4,3.13.09.7.16,1.39.23,2.09v0q.36,3.61.5,7.29c0,.84.06,1.68.08,2.52v0c0,.7-.06,1.4-.11,2.09l0,.35c0,.16,0,.31,0,.47,0,.35-.06.7-.1,1.06A52.23,52.23,0,0,1,126,252a.11.11,0,0,0,0,.07,7.07,7.07,0,0,0,2.84,3.26,5.16,5.16,0,0,0,.7.37,7.08,7.08,0,0,0,3.21-3c0,.17.11.33.17.5a7.39,7.39,0,0,0,1.7,2.59,6.92,6.92,0,0,0,3.37-2.91,2.49,2.49,0,0,0,.15-.28l.06.28a7.5,7.5,0,0,0,.9,2.35A7.18,7.18,0,0,0,141.2,257.47Z"/><polygon class="cls-2" points="150.47 252.27 150.48 252.27 150.48 252.26 150.47 252.27"/><polygon class="cls-2" points="150.47 252.27 150.48 252.27 150.48 252.26 150.47 252.27"/><path class="cls-2" d="M157.51,89.15l.15,0-.16,0Z"/><path class="cls-2" d="M168.82,239.14h0a6.4,6.4,0,0,0,.88.06l.49,0h0a6.62,6.62,0,0,0,3.73-1.54h0l.06,0h0a2.17,2.17,0,0,0,.1-3.1c-.86-.89-1.72-1.8-2.56-2.72-1.83-2-3.6-4.09-5.29-6.24-.83-1.05-1.64-2.12-2.44-3.2-.47-.64-.93-1.29-1.39-1.94q-1.57-2.25-3.06-4.57c-.29.93-.59,1.85-.9,2.77-.95,2.79-2,5.54-3.14,8.22-.16.39-.33.78-.5,1.17-.27.62-.55,1.24-.83,1.86v0l-.39.85h0a2.49,2.49,0,0,0-.11.29h0a7.74,7.74,0,0,0-.27,3.95,4.83,4.83,0,0,0,3.46,3.79h0a27.05,27.05,0,0,0,6.89.88h.1A27.31,27.31,0,0,0,168.82,239.14Z"/><path class="cls-2" d="M150.48,252.26h0Zm-24.48-.2,0-.06a.11.11,0,0,0,0,.07Z"/><path class="cls-2" d="M122,236.74a8,8,0,0,1-.24-1.48c0-.17,0-.35,0-.52a7.27,7.27,0,0,1,5.18-7.12l.13,0c-.12-1.05-.25-2.09-.4-3.13-.07-.5-.14-1-.22-1.49a121.47,121.47,0,0,0-9.81-32.62h0l.09-.35q-1.63-3.19-3-6.56c-.17-.4-.33-.82-.5-1.23-.78-2-1.49-4-2.12-6.07-.23-.74-.45-1.48-.66-2.23a87.7,87.7,0,0,1-2.54-12.67q-3,2.55-5.86,5.32l-.22.23a112.74,112.74,0,0,0-9.16,10.1,8.28,8.28,0,0,0,1.77,12l.08.05h0a9.71,9.71,0,0,0,1.31.7h0c.56.31,1.12.65,1.66,1h0a29.94,29.94,0,0,1,8.06,7.89,31.91,31.91,0,0,1,4.75,10.4h0a31.69,31.69,0,0,1,.8,4.28,26.59,26.59,0,0,0,.79,4.05,51.29,51.29,0,0,0,6.21,14.06q1.2,1.9,2.56,3.67C121.11,235.62,121.57,236.18,122,236.74Z"/><path class="cls-2" d="M165.1,178.85a3.28,3.28,0,0,0,3.17,0,28.63,28.63,0,0,1,3-1.43,25.55,25.55,0,0,1,2.59-.9l.07,0a3.81,3.81,0,0,0,1.24-6.51l-.65-.53A47,47,0,0,0,168,165a45.05,45.05,0,0,0-8.4-3.63h0c0,.31,0,.62,0,.93h0q.5,4.74.65,9.58a3.89,3.89,0,0,0,.94,2.44l.2.22.54.64h0a29.43,29.43,0,0,1,1.83,2.45,3.61,3.61,0,0,0,1.12,1.08Z"/><path class="cls-2" d="M143.59,127.86a28.27,28.27,0,0,0,21.25-9.81.48.48,0,0,0,.1-.37q-.54-4-1.33-7.9a121,121,0,0,0-6.1-20.63h0l-.36-.91c-.51-1.27-1-2.54-1.6-3.78q-.94-2.13-2-4.21l0,0A4.78,4.78,0,0,0,146.76,78c-1.62,1-3.21,2-4.76,3.1a.93.93,0,0,0-.16,1.27A23.35,23.35,0,0,0,148.11,89c.45.3,0,.89-.55.71-2.79-1-4.44-2.74-6.8-4.81a3.09,3.09,0,0,0-3.95.27c-1,.88-2.06,1.78-3.06,2.71-1.51,1.41-3,2.89-4.38,4.42a82.37,82.37,0,0,0-11.69,16.38c-.16.3-.33.6-.48.9a.47.47,0,0,0,0,.4C121.85,120.53,131.92,127.86,143.59,127.86Z"/><path class="cls-2" d="M157.51,89.15l.15,0-.16,0Z"/><path class="cls-2" d="M166.13,140a6.7,6.7,0,0,0,.9-.79h0A7.34,7.34,0,0,0,168.5,137a7.15,7.15,0,0,0,.29-.77c.44-.55.91-1.08,1.4-1.6a4.92,4.92,0,0,0,1.38-3.71,32.71,32.71,0,0,0-1.52-7.72,31.37,31.37,0,0,0-2.69-6A30.9,30.9,0,0,0,164,112.4c-.54,2-1,4-1.4,6s-.73,4.06-1,6.13c-.09.7-.17,1.4-.24,2.11l0,.32q-.4,4.21-.41,8.53c0,1.23,0,2.46.08,3.68,0,.31,0,.63,0,.94a1.18,1.18,0,0,0,1.15,1.14h0A6.55,6.55,0,0,0,166.13,140Z"/><ellipse class="cls-3" cx="132.82" cy="100.74" rx="2.62" ry="2.8"/><path class="cls-2" d="M231,287.14c0-.82,0-1.65,0-2.48A53.14,53.14,0,0,1,232.23,273a51.58,51.58,0,0,1,2.62-8.43c.4-.57.78-1.16,1.14-1.76a31.81,31.81,0,0,0,2.79-6,34.19,34.19,0,0,0,1.08-3.82l.15-.76a101.84,101.84,0,0,0,10.38.62c.33,0,1.11-1.33,1.44-1.33,3.26,0,6,1.18,9.21.89l1.95-.2,1.5-.19c.26.93.54,1.84.84,2.74a52,52,0,0,0,3.16,7.46l0,0c.37.7.75,1.4,1.15,2.08v0a51.87,51.87,0,0,1,3.32,7.92c.07.24.15.47.22.71.28.9.53,1.81.76,2.72a53.15,53.15,0,0,1,1.36,7.83c0-.26-1.18-.91-1.41-1.08-.5-.36-1-.71-1.53-1a37.2,37.2,0,0,0-16.59-5.41,31.21,31.21,0,0,0-10.09,1,26.23,26.23,0,0,0-9.55,4.31,18.27,18.27,0,0,0-4.29,4.44A14.35,14.35,0,0,1,231,287.14Z"/><path class="cls-2" d="M264.45,252.07l0-.07v.06Z"/><path class="cls-2" d="M249.29,257.47A6.93,6.93,0,0,1,245.8,255a7.49,7.49,0,0,1-1-1.91,4.47,4.47,0,0,1-.45.42,6.8,6.8,0,0,1-1.5,1,6.83,6.83,0,0,1-2.8-2.2h0c0-.08,0-.17.05-.25v0a.64.64,0,0,0,0-.07v-.1a.52.52,0,0,0,0-.11.5.5,0,0,0,0-.12v-.05h0v0s0,0,0,0v0a.06.06,0,0,1,0,0l0-.23,0-.19v0h0s0,0,0-.06h0v-.06s0-.06,0-.09a.26.26,0,0,1,0-.07h0a0,0,0,0,1,0,0h0v-.05l0-.2,0-.33a.08.08,0,0,0,0,0l0-.3c0-.16,0-.32,0-.49s.05-.51.07-.78h0c0-.07,0-.14,0-.21s0-.26,0-.38,0,0,0,0v-.13a.49.49,0,0,0,0-.12v-.16a.76.76,0,0,0,0-.15v-.07s0-.05,0-.09v-.36c0-.14,0-.29,0-.44V246c0-1.16-.06-2.3-.17-3.43-.08-.71-.17-1.41-.29-2.11,0-.15,0-.3-.08-.45a31.34,31.34,0,0,0-.77-3.28A32.12,32.12,0,0,0,237,231h0a1.82,1.82,0,0,0-.11-.3,6,6,0,0,0-.39-.85v0c-.29-.62-.56-1.24-.83-1.86l-.51-1.17c-1.14-2.68-2.18-5.43-3.13-8.22-.32-.92-.62-1.84-.91-2.77a123.2,123.2,0,0,1-4.82-22.67c-.12-1-.22-2-.31-3,0-.51-.09-1-.13-1.52-.26-3.29-.4-6.62-.4-10,0-.31,0-.62,0-.93,0-.12,0-.24,0-.36h0c0-.37,0-.75,0-1.11.07-3.73.3-7.42.69-11.05,0-.33.07-.65.11-1l-.11,0q0-5.5-.46-10.86l.07,0c-.07-.45-.14-.9-.2-1.36v0c-.17-1.71-.37-3.41-.61-5.1v0c0-.18,0-.37-.05-.55-.3-3.22-.48-6.48-.52-9.78,0-.63,0-1.26,0-1.9a125.14,125.14,0,0,1,1-16.07c0-.21.05-.43.08-.64a28.29,28.29,0,0,0,21.38,10c11.75,0,21.87-7.42,26.5-18.11-.08.19.79,1.54.91,1.78.31.62.61,1.25.9,1.88q.89,1.89,1.68,3.84c1.06,2.61,2,5.28,2.8,8,.72,2.44,1.34,4.92,1.84,7.42a89,89,0,0,1,1.74,17.54c0,1.1,0,2.21-.06,3.3q-.13,3.92-.62,7.73a76,76,0,0,1-2.07,10.91,100,100,0,0,1-3.25,10.06c-.16.41-.33.83-.5,1.23-.91,2.24-1.93,4.43-3,6.56l.09.35A121.83,121.83,0,0,0,264,223c-.08.49-.15,1-.22,1.49-.15,1-.28,2.08-.4,3.13-.08.7-.16,1.39-.22,2.09v0q-.36,3.61-.5,7.29c0,.84-.06,1.68-.07,2.52v0c0,.7.06,1.4.1,2.09l0,.35c0,.16,0,.31,0,.47,0,.35.07.7.1,1.06a53.35,53.35,0,0,0,1.6,8.46l0,.07a7.15,7.15,0,0,1-2.85,3.26,5.7,5.7,0,0,1-.69.37,7.06,7.06,0,0,1-3.22-3c-.05.17-.11.33-.17.5a7.39,7.39,0,0,1-1.7,2.59,6.94,6.94,0,0,1-3.36-2.91,2.54,2.54,0,0,1-.16-.28c0,.1,0,.19-.05.28a7.5,7.5,0,0,1-.9,2.35A7.21,7.21,0,0,1,249.29,257.47Z"/><polygon class="cls-2" points="240.02 252.27 240.01 252.27 240.01 252.26 240.02 252.27"/><polygon class="cls-2" points="240.02 252.27 240.01 252.27 240.01 252.26 240.02 252.27"/><path class="cls-2" d="M233,89.15l-.16,0,.16,0Z"/><path class="cls-2" d="M221.68,239.14h0a6.25,6.25,0,0,1-.87.06l-.49,0h0a6.59,6.59,0,0,1-3.72-1.54h0l-.06,0h0a2.16,2.16,0,0,1-.11-3.1c.87-.89,1.72-1.8,2.56-2.72,1.84-2,3.6-4.09,5.3-6.24.82-1.05,1.64-2.12,2.43-3.2.47-.64.94-1.29,1.4-1.94q1.57-2.25,3-4.57c.29.93.59,1.85.91,2.77.95,2.79,2,5.54,3.13,8.22l.51,1.17c.27.62.54,1.24.83,1.86v0l.39.85h0a2.47,2.47,0,0,1,.1.29h0a7.85,7.85,0,0,1,.26,3.95,4.81,4.81,0,0,1-3.46,3.79h0a27.11,27.11,0,0,1-6.89.88h-.11A27.12,27.12,0,0,1,221.68,239.14Z"/><path class="cls-2" d="M240,252.26h0Zm24.48-.2V252l0,.07Z"/><path class="cls-2" d="M268.46,236.74a7.26,7.26,0,0,0,.24-1.48,4.52,4.52,0,0,0,0-.52,7.26,7.26,0,0,0-5.18-7.12l-.13,0c.12-1.05.25-2.09.4-3.13.07-.5.14-1,.22-1.49a121.83,121.83,0,0,1,9.81-32.62h0l-.09-.35c1.09-2.13,2.11-4.32,3-6.56.17-.4.34-.82.5-1.23.78-2,1.49-4,2.13-6.07.22-.74.44-1.48.65-2.23a86.38,86.38,0,0,0,2.54-12.67c2,1.7,4,3.47,5.86,5.32l.23.23a114.17,114.17,0,0,1,9.15,10.1,8.29,8.29,0,0,1-1.76,12l-.08.05h0a9.59,9.59,0,0,1-1.3.7h0c-.56.31-1.11.65-1.65,1h0a30.08,30.08,0,0,0-8.06,7.89,31.91,31.91,0,0,0-4.75,10.4h0a35.15,35.15,0,0,0-.8,4.28,27.84,27.84,0,0,1-.78,4.05,51.31,51.31,0,0,1-6.22,14.06q-1.2,1.9-2.55,3.67C269.38,235.62,268.93,236.18,268.46,236.74Z"/><path class="cls-2" d="M225.39,178.85a3.26,3.26,0,0,1-3.16,0,30.66,30.66,0,0,0-3-1.43,26.62,26.62,0,0,0-2.6-.9l-.06,0a3.8,3.8,0,0,1-1.24-6.51l.64-.53a47.62,47.62,0,0,1,6.57-4.44,45.05,45.05,0,0,1,8.4-3.63h0v.93h0q-.51,4.74-.66,9.58a3.84,3.84,0,0,1-.94,2.44l-.19.22c-.19.21-.37.42-.54.64h0c-.64.78-1.25,1.6-1.83,2.45a3.57,3.57,0,0,1-1.11,1.08Z"/><path class="cls-2" d="M246.9,127.86a28.25,28.25,0,0,1-21.24-9.81.45.45,0,0,1-.11-.37q.54-4,1.33-7.9A121,121,0,0,1,233,89.15h0c.12-.31.24-.61.37-.91.51-1.27,1-2.54,1.6-3.78q.94-2.13,2-4.21l0,0A4.78,4.78,0,0,1,243.73,78c1.63,1,3.21,2,4.76,3.1a.94.94,0,0,1,.17,1.27A23.39,23.39,0,0,1,242.38,89c-.45.3,0,.89.55.71,2.8-1,4.45-2.74,6.8-4.81a3.09,3.09,0,0,1,4,.27c1,.88,2.06,1.78,3.06,2.71,1.51,1.41,3,2.89,4.38,4.42a82,82,0,0,1,11.69,16.38c.17.3.33.6.49.9a.47.47,0,0,1,0,.4C268.65,120.53,258.58,127.86,246.9,127.86Z"/><path class="cls-2" d="M233,89.15l-.16,0,.16,0Z"/><path class="cls-2" d="M224.37,140a6.14,6.14,0,0,1-.9-.79h0A7.34,7.34,0,0,1,222,137a7.08,7.08,0,0,1-.28-.77c-.45-.55-.92-1.08-1.4-1.6a4.9,4.9,0,0,1-1.39-3.71,32.72,32.72,0,0,1,1.53-7.72,30.77,30.77,0,0,1,2.69-6,30.22,30.22,0,0,1,3.32-4.71c.53,2,1,4,1.39,6s.73,4.06,1,6.13c.08.7.16,1.4.23,2.11l0,.32c.26,2.81.4,5.65.4,8.53,0,1.23,0,2.46-.08,3.68,0,.31,0,.63,0,.94a1.17,1.17,0,0,1-1.14,1.14h0A6.54,6.54,0,0,1,224.37,140Z"/><ellipse class="cls-3" cx="257.67" cy="100.74" rx="2.62" ry="2.8"/></g></g></svg>