<svg xmlns="http://www.w3.org/2000/svg" xmlns:xlink="http://www.w3.org/1999/xlink" viewBox="0 0 254.4 254.4"><defs><style>.cls-1{stroke:#887ba8;stroke-miterlimit:10;stroke-width:4.87px;fill:url(#linear-gradient);}.cls-2{fill:#cca5f9;stroke:#5f4aa0;stroke-linecap:round;stroke-linejoin:round;stroke-width:1.08px;}</style><linearGradient id="linear-gradient" x1="127.2" y1="251.97" x2="127.2" y2="2.43" gradientTransform="translate(127.2 307.09) rotate(-135)" gradientUnits="userSpaceOnUse"><stop offset="0" stop-color="#bb8be8" stop-opacity="0.3"/><stop offset="1" stop-color="#8670a0" stop-opacity="0.1"/></linearGradient></defs><g id="Layer_2" data-name="Layer 2"><g id="main"><rect class="cls-1" x="26.01" y="26.01" width="202.39" height="202.39" rx="44.28" transform="translate(307.09 127.2) rotate(135)"/><g id="fnE8Ml.tif"><path class="cls-2" d="M127.15,172.06a44.86,44.86,0,1,1,44.91-44.72A44.85,44.85,0,0,1,127.15,172.06Zm-29.3-44.31a6.28,6.28,0,0,0,1.88,5q8.73,8.75,17.48,17.47a4,4,0,0,0,5.66.1c.28-.24.53-.5.8-.76l19.7-19.69,11.54-11.53a6.09,6.09,0,0,0,1.93-6.26c-1.33-5-7-6.51-10.73-2.77q-12.51,12.4-24.91,24.9c-1.08,1.08-1.06,1.1-2.13,0-3.52-3.52-7-7.07-10.59-10.54a6.32,6.32,0,0,0-10.63,4.07Z"/></g></g></g></svg>