<svg xmlns="http://www.w3.org/2000/svg" xmlns:xlink="http://www.w3.org/1999/xlink" viewBox="0 0 127.11 127.11"><defs><style>.cls-1{stroke:#d3ad62;stroke-miterlimit:10;stroke-width:2.4px;fill:url(#linear-gradient);}.cls-2{fill:#d3ad62;stroke:#6d522c;stroke-linecap:round;stroke-linejoin:round;stroke-width:0.6px;}</style><linearGradient id="linear-gradient" x1="63.55" y1="125.91" x2="63.55" y2="1.2" gradientUnits="userSpaceOnUse"><stop offset="0" stop-color="#876849" stop-opacity="0.3"/><stop offset="1" stop-color="#594731" stop-opacity="0.1"/></linearGradient></defs><g id="Layer_2" data-name="Layer 2"><g id="main"><circle class="cls-1" cx="63.55" cy="63.55" r="62.35"/><g id="_5JHHm9.tif" data-name="5JHHm9.tif"><path class="cls-2" d="M66.33,68.88a20.83,20.83,0,0,0-7.65.87,35.09,35.09,0,0,0-14,8.52,64.47,64.47,0,0,0-9.32,11.2,3.66,3.66,0,0,1-3.46,1.88,3.32,3.32,0,0,1-3.11-3c-.12-5.81-.32-11.65,1.46-17.3Q36,52.8,53.81,46a36.15,36.15,0,0,1,12-2.27c.13,0,.26,0,.48,0v-.91c0-3.61,0-7.23,0-10.85a3.54,3.54,0,0,1,2.15-3.6,3.48,3.48,0,0,1,4.07,1L97.14,53.86a3.48,3.48,0,0,1,0,5.33q-12.34,12.36-24.7,24.7a3.41,3.41,0,0,1-4,.92,3.45,3.45,0,0,1-2.14-3.52C66.34,77.19,66.33,73.08,66.33,68.88Z"/></g></g></g></svg>