<svg xmlns="http://www.w3.org/2000/svg" xmlns:xlink="http://www.w3.org/1999/xlink" viewBox="0 0 111.89 67.42"><defs><style>.cls-1,.cls-2{opacity:0.4;}.cls-1{fill:url(#linear-gradient);}.cls-2{fill:url(#linear-gradient-2);}.cls-3{fill:#d3ad62;}.cls-4{fill:#fff3dc;}</style><linearGradient id="linear-gradient" x1="55.95" y1="33.71" x2="6" y2="33.71" gradientUnits="userSpaceOnUse"><stop offset="0" stop-color="#bb8be8" stop-opacity="0.7"/><stop offset="1" stop-color="#8670a0" stop-opacity="0.5"/></linearGradient><linearGradient id="linear-gradient-2" x1="55.95" y1="33.71" x2="105.9" y2="33.71" gradientUnits="userSpaceOnUse"><stop offset="0" stop-color="#d86464" stop-opacity="0.7"/><stop offset="1" stop-color="#a55050" stop-opacity="0.5"/></linearGradient></defs><g id="Layer_2" data-name="Layer 2"><g id="main"><path class="cls-1" d="M56,6H33.71A27.71,27.71,0,0,0,6,33.71H6A27.71,27.71,0,0,0,33.71,61.42H56Z"/><path class="cls-2" d="M56,6H78.19A27.71,27.71,0,0,1,105.9,33.71h0A27.71,27.71,0,0,1,78.19,61.42H56Z"/><path class="cls-3" d="M78.18,6a27.71,27.71,0,0,1,0,55.42H33.71A27.71,27.71,0,0,1,33.71,6H78.18m0-6H33.71a33.71,33.71,0,0,0,0,67.42H78.18A33.71,33.71,0,0,0,78.18,0Z"/><path class="cls-4" d="M92.64,57.39a24.25,24.25,0,0,0,3.11-2A23.84,23.84,0,0,1,92.64,57.39Z"/><path class="cls-3" d="M75.47,14.24A20.28,20.28,0,0,1,77.81,16c5.06,5,10.07,10,15.1,15,1.83,1.83,1.82,3.56,0,5.4L77.33,52a3.32,3.32,0,0,1-3.43,1.09,3.21,3.21,0,0,1-1.64-5.17,7.79,7.79,0,0,1,.62-.66L85.76,34.37a5.12,5.12,0,0,1,.73-.53l-.74-.79Q79.19,26.53,72.66,20a3.22,3.22,0,0,1,.11-5,9.31,9.31,0,0,1,1.33-.7Z"/><path class="cls-3" d="M37.8,14.24c.27.13.56.23.82.37a3.24,3.24,0,0,1,.67,5.32Q34.13,25.1,29,30.26L25.5,33.69l.65.68L39.23,47.43a3.25,3.25,0,0,1-4.1,5c-.26-.21-.49-.45-.73-.68L18.89,36.31c-1.69-1.69-1.69-3.5,0-5.18Q26.49,23.54,34.08,16a20.4,20.4,0,0,1,2.35-1.74Z"/><path class="cls-4" d="M55.77,42.7a9,9,0,0,1,.13-18h.16a9,9,0,0,1,0,18Z"/><path class="cls-3" d="M55.9,27.22H56a6.5,6.5,0,0,1,0,13h-.18a6.5,6.5,0,0,1,.06-13m0-5h0a11.49,11.49,0,0,0-.2,23H56a11.5,11.5,0,0,0,.08-23Z"/></g></g></svg>