<svg xmlns="http://www.w3.org/2000/svg" viewBox="0 0 55.62 50.23"><defs><style>.cls-1{fill:#b79d6a;}</style></defs><g id="Layer_2" data-name="Layer 2"><g id="Layer_1-2" data-name="Layer 1"><polygon class="cls-1" points="0 17.11 10.93 17.11 27.7 0.34 27.7 50.23 10.85 33.37 0 33.37 0 17.11"/><path class="cls-1" d="M44.43,25.11a14.1,14.1,0,0,1-11.1,13.77V33.14c7.27-2.34,7.27-13.73,0-16.07V11.35A14.07,14.07,0,0,1,44.43,25.11Z"/><path class="cls-1" d="M44.43,25.11a14.1,14.1,0,0,1-11.1,13.77V33.14c7.27-2.34,7.27-13.73,0-16.07V11.35A14.07,14.07,0,0,1,44.43,25.11Z"/><path class="cls-1" d="M55.62,25.11A25.3,25.3,0,0,1,33.33,50.22V44.63c22-3,21.94-36,0-39V0A25.29,25.29,0,0,1,55.62,25.11Z"/><path class="cls-1" d="M44.43,25.11a14.1,14.1,0,0,1-11.1,13.77V33.14c7.27-2.34,7.27-13.73,0-16.07V11.35A14.07,14.07,0,0,1,44.43,25.11Z"/><path class="cls-1" d="M44.43,25.11a14.1,14.1,0,0,1-11.1,13.77V33.14c7.27-2.34,7.27-13.73,0-16.07V11.35A14.07,14.07,0,0,1,44.43,25.11Z"/><path class="cls-1" d="M55.62,25.11A25.3,25.3,0,0,1,33.33,50.22V44.63c22-3,21.94-36,0-39V0A25.29,25.29,0,0,1,55.62,25.11Z"/></g></g></svg>